<?xml version="1.0" encoding="utf-8"?>
<svg version="1.1" xmlns:xlink="http://www.w3.org/1999/xlink" width="25px" height="25px" xmlns="http://www.w3.org/2000/svg">
  <defs>
    <linearGradient gradientUnits="userSpaceOnUse" x1="153.402791893289" y1="119.032999106789" x2="155.597208106711" y2="155.967000893211" id="LinearGradient133">
      <stop id="Stop134" stop-color="#409eff" offset="0" />
      <stop id="Stop135" stop-color="#409eff" offset="0.5" />
      <stop id="Stop136" stop-color="#0066ff" stop-opacity="0.654901960784314" offset="0.99" />
      <stop id="Stop137" stop-color="#0066ff" stop-opacity="0.698039215686274" offset="1" />
    </linearGradient>
  </defs>
  <g transform="matrix(1 0 0 1 -142 -125 )">
    <path d="M 154.5 125  C 161.5 125  167 130.5  167 137.5  C 167 144.5  161.5 150  154.5 150  C 147.5 150  142 144.5  142 137.5  C 142 130.5  147.5 125  154.5 125  Z " fill-rule="nonzero" fill="#409eff" stroke="none" />
    <path d="M 154.5 125.5  C 161.22 125.5  166.5 130.78  166.5 137.5  C 166.5 144.22  161.22 149.5  154.5 149.5  C 147.78 149.5  142.5 144.22  142.5 137.5  C 142.5 130.78  147.78 125.5  154.5 125.5  Z " stroke-width="1" stroke="url(#LinearGradient133)" fill="none" />
  </g>
</svg>