<svg t="1607334418124" class="icon" viewBox="0 0 1024 1024" version="1.1" xmlns="http://www.w3.org/2000/svg" p-id="17041" width="200" height="200"><path d="M373.26336 604.87168c-39.42912-2.9184-62.7968-23.36256-65.7152-64.25088v-1.4592c-2.9184-8.76544-8.76032-14.61248-18.98496-11.68384-10.22464 0-14.60224 5.84192-14.60224 14.60736v10.21952c0 35.05152 27.74528 73.02144 61.33248 80.32256 11.68384 2.9184 24.82688 7.30112 37.96992 1.4592 8.76032-2.9184 10.22464-8.76032 10.22464-16.06144 0-7.31136-2.9184-13.15328-10.22464-13.15328z m356.33152-147.49696c-23.36256 21.90848-46.73536 24.82688-73.01632 7.30112-10.22464-7.30112-20.44928-4.3776-26.2912 5.84192s-1.4592 18.98496 7.30112 24.82688c16.06656 10.22464 33.59232 18.98496 52.57728 17.52576 24.82688-1.4592 46.73536-10.22464 62.7968-30.6688 5.84192-7.30112 7.30112-16.06656 0-23.36256-7.30112-8.76544-16.06144-8.76544-23.36768-1.46432z" fill="#1296db" p-id="17042"></path><path d="M544.128 638.45888c-24.832-4.3776-43.81184-23.36256-49.65376-46.73024-7.30112-35.05152-23.36256-51.10784-58.41408-56.95488-36.5056-7.30112-49.65376-20.44416-55.49056-58.41408-2.92352-17.52064-11.68384-32.128-24.82688-40.88832-8.76032-5.84192-18.98496-8.76032-30.6688-8.76032-5.84192 0-11.68384 0-16.06656 1.4592-1.4592 0-4.3776 1.46432-5.84192 1.46432-4.38272 1.4592-8.76032 1.4592-14.60736 2.9184-49.65376 17.52576-83.24096 49.65376-99.30752 96.384-7.30112 20.44416-7.30112 39.42912-5.84192 56.95488v17.52064c-1.46432 26.2912-7.30112 46.73536-18.98496 65.72032-24.82688 37.96992-55.49568 73.02144-84.70016 106.60864-5.84192 7.30112-13.14304 13.13792-18.98496 18.97984-14.60224 13.14304-26.28608 24.832-37.96992 39.42912-20.44416 29.2096-13.14304 51.11296-2.9184 64.26112 33.5872 43.81184 73.01632 78.85824 116.82816 116.82816l2.9184 1.4592c7.31136 4.38272 13.14816 7.30112 20.4544 7.30112 5.84192 0 11.68384-1.4592 16.06656-4.3776l1.4592-1.4592c4.3776-1.4592 7.30112-2.9184 10.22464-5.84192 17.52576-10.22464 30.6688-23.36768 42.34752-36.51072l21.90848-21.90848 75.93984-68.6336 8.76032-4.38272c4.38272-2.9184 7.30112-5.84192 10.22464-8.76032 10.22464-7.30112 18.98496-14.60224 29.2096-18.97984 20.44416-8.76544 45.27104-10.22464 70.09792-11.68896h1.4592c74.47552-2.9184 132.89984-51.10784 150.41536-122.67008 5.84192-21.89824 2.9184-40.88832-7.30112-55.49056-7.30112-11.68896-23.36768-20.4544-46.73536-24.83712z m14.60224 73.02144c-13.13792 52.57728-56.95488 87.61856-110.98624 90.54208h-1.4592c-27.74528 1.46432-55.49056 2.92352-84.70016 14.61248-14.60736 5.84192-26.28608 16.06144-37.96992 24.82176-2.9184 2.92352-7.30112 5.84704-10.22464 7.30624-1.4592 1.4592-2.9184 1.4592-2.9184 1.4592l-2.92352 1.4592-80.32256 71.552a199.8592 199.8592 0 0 0-24.82688 24.82688c-11.68384 11.68384-21.90848 21.90848-33.59232 30.6688-1.4592 0-1.4592 1.4592-2.9184 1.4592h-2.9184c-39.43424-33.59232-75.93984-67.17952-106.60864-106.60864-1.4592-2.9184-2.92352-5.84192 4.3776-16.06144 7.30112-11.68384 17.52576-20.44928 29.2096-32.128l21.90336-21.90336c30.6688-33.59232 61.3376-70.09792 89.08288-110.99136 16.06656-24.82688 24.82688-52.57728 26.28608-86.15936v-20.44416c0-14.60736 0-29.2096 4.38272-42.34752 11.68384-35.05152 35.0464-56.96 73.01632-70.09792 2.9184-1.4592 5.84192-1.4592 8.76032-1.4592h1.4592c2.9184 0 4.3776-1.4592 7.30112-1.4592 5.84192-1.4592 11.68384-1.4592 14.60224 1.4592 4.38272 2.9184 5.84192 8.76032 7.30112 13.14304 8.76032 54.03648 36.51072 81.78176 89.08288 92.0064 17.52576 2.9184 20.44416 5.84192 24.82688 24.82176 8.76032 40.88832 42.35264 73.02144 83.24608 80.32256 10.21952 1.4592 17.52064 4.38272 20.43904 8.76544 0.01024 2.90816 0.01024 10.2144-2.90816 20.43392z m454.17984-565.16096v-2.92352l-1.4592-2.9184c-5.84704-11.68384-18.99008-27.74528-26.2912-36.51072l-30.6688-30.6688-11.67872-11.68384c-8.76032-8.76032-17.52576-17.52576-26.2912-24.82688-10.21952-5.84192-24.82176-16.06656-39.42912-26.28608-11.67872-7.30112-20.43904-11.68384-29.20448-10.22464-16.06656 2.9184-36.51072 23.36256-51.11296 39.42912l-24.82688 23.36256c-7.30112 4.38272-11.68384 10.22464-16.06656 13.14304-27.74528 27.74528-59.86816 54.03136-97.83808 78.85824-26.2912 17.52064-48.19456 24.82688-73.02144 23.36256-21.90848-1.4592-45.27104 1.4592-68.63872 10.22464-73.01632 24.82688-118.29248 109.52704-97.8432 184.00768 16.06656 59.87328 55.49568 99.30752 112.45056 112.44544 1.4592 0 2.9184 0 2.9184 1.4592 0 0 1.4592 1.46432 1.4592 4.38272 18.98496 58.41408 74.48064 102.22592 131.43552 105.14432h11.67872c62.80192 0 109.53216-27.74528 141.66016-83.24096 18.97984-32.128 17.52064-68.63872 17.52064-99.30752 0-21.90336 2.9184-37.96992 11.68384-52.57216 39.42912-62.7968 87.62368-113.90976 131.43552-157.7216 7.30112-7.30112 14.60224-17.52576 18.98496-23.36768v-1.4592c1.4592-1.4592 1.4592-2.9184 2.9184-2.9184 10.22464-10.20416 11.68384-18.9696 10.22464-29.18912z m-45.27616 8.76032c-2.9184 4.3776-10.22464 14.60224-14.60736 18.98496-45.27104 43.81184-96.37888 99.30752-137.27232 165.0176-13.14304 20.44416-18.99008 45.27104-18.99008 75.93984 0 27.74528 1.4592 54.03648-11.67872 77.39904-23.36768 42.34752-58.41408 62.7968-105.14944 62.7968h-8.76032c-39.42912-1.4592-80.32256-35.05152-94.91968-75.93984-5.84704-17.52576-17.53088-27.74528-35.05152-32.128-42.35264-10.22464-70.09792-39.42912-81.78176-83.24096-14.60736-52.57216 18.98496-115.36896 71.55712-132.89472 18.98496-5.84192 36.51072-8.76032 52.57728-7.30112 33.59232 2.9184 65.7152-5.84192 99.3024-29.2096 39.42912-26.28608 73.02144-54.03648 103.69024-84.70016 4.3776-4.3776 7.30112-7.30112 11.67872-8.76032l30.6688-29.2096c7.30112-8.76032 17.52576-18.98496 23.36768-23.36256h1.4592v-2.92352c7.30112 4.38272 26.28096 17.52576 33.5872 24.82688 7.30624 5.84192 16.06656 14.60736 23.36256 21.90336l2.9184 2.92352c4.3776 2.9184 7.30624 5.84192 10.22464 8.76032 10.22464 10.22464 20.44416 18.98496 29.20448 29.2096 4.3776 4.38272 10.22464 13.14304 14.60736 18.98496v2.92352z" fill="#1296db" p-id="17043"></path></svg>