<svg t="1607072009709" class="icon" viewBox="0 0 1024 1024" version="1.1" xmlns="http://www.w3.org/2000/svg" p-id="4806" width="200" height="200"><path d="M325.9 451.2h30.7v30.7h-30.7v-30.7zM325.9 503.3h30.7V534h-30.7v-30.7zM469.6 561.4h90v112.3h-90V561.4zM512 314.3c-41.6 0-75.4 33.8-75.4 75.4 0 41.6 33.8 75.4 75.4 75.4 41.6 0 75.4-33.8 75.4-75.4 0-41.6-33.8-75.4-75.4-75.4z m47.6 94.1h-28.9v28.9h-37.4v-28.9h-28.9V371h28.9v-28.9h37.4V371h28.9v37.4zM278.1 557.1h30.7v30.7h-30.7v-30.7zM278.1 503.3h30.7V534h-30.7v-30.7zM278.1 451.2h30.7v30.7h-30.7v-30.7zM325.9 557.1h30.7v30.7h-30.7v-30.7zM723.8 557.1h30.7v30.7h-30.7v-30.7zM723.8 503.3h30.7V534h-30.7v-30.7zM723.8 451.2h30.7v30.7h-30.7v-30.7z" fill="#cdcdcd" p-id="4807"></path><path d="M512 16C238.5 16 16 238.5 16 512s222.5 496 496 496 496-222.5 496-496S785.5 16 512 16z m303 703.3H209v-44.2h36.8c-0.7-2.1-1.1-4.4-1.1-6.8V419.1c0-11.8 9.6-21.4 21.4-21.4h116.2V663c0 4.3 0.8 8.3 2.1 12.1h14c-0.7-2.1-1.1-4.4-1.1-6.8V326.1c0-11.8 9.6-21.4 21.4-21.4h186.8c11.8 0 21.4 9.6 21.4 21.4v342.2c0 2.4-0.4 4.7-1.1 6.8h14c1.4-3.8 2.1-7.9 2.1-12.1V397.7H761c11.8 0 21.4 9.6 21.4 21.4v249.2c0 2.4-0.4 4.7-1.1 6.8h33.9v44.2z" fill="#cdcdcd" p-id="4808"></path><path d="M676 557.1h30.7v30.7H676v-30.7zM676 503.3h30.7V534H676v-30.7zM676 451.2h30.7v30.7H676v-30.7z" fill="#cdcdcd" p-id="4809"></path></svg>