<svg t="1607072157268" class="icon" viewBox="0 0 1024 1024" version="1.1" xmlns="http://www.w3.org/2000/svg" p-id="12495" width="200" height="200"><path d="M512 512m-512 0a512 512 0 1 0 1024 0 512 512 0 1 0-1024 0Z" fill="#cdcdcd" p-id="12496" data-spm-anchor-id="a313x.7781069.0.i16" class=""></path><path d="M297.802323 370.142968a16.450065 16.450065 0 0 1-0.512-3.782194v-46.393806c0-0.346839 0.082581-0.891871 0.264258-1.618581a9.00129 9.00129 0 0 0 0.264258-2.147097l-0.512-3.798709c0-2.147097 0.429419-4.129032 1.304774-5.945807 0.875355-1.783742 1.915871-3.402323 3.138064-4.839226a11.346581 11.346581 0 0 1 4.707097-3.237161c1.915871-0.72671 3.914323-1.090065 6.011871-1.090064h51.778065c2.807742 0 5.318194 0.627613 7.597419 1.882838a15.029677 15.029677 0 0 1 7.580903 13.212904c0 4.327226-1.486452 8.010323-4.459355 11.065806a14.402065 14.402065 0 0 1-10.735483 4.591484h-37.128259v38.317419c0 1.073548-0.165161 2.312258-0.528516 3.765678 0.346839 1.073548 0.528516 2.34529 0.528516 3.782193 0 29.48129 10.190452 54.750968 30.587871 75.776 20.397419 21.041548 44.973419 31.545806 73.744517 31.545807 28.754581 0 53.248-10.504258 73.480258-31.545807 20.232258-21.025032 30.340129-46.29471 30.340129-75.776l0.512-3.782193a16.450065 16.450065 0 0 1-0.512-3.782194v-38.300903h-44.444904a12.915613 12.915613 0 0 1-4.707096-0.80929 16.796903 16.796903 0 0 1-3.914323-2.147097 13.807484 13.807484 0 0 1-3.138064-3.253678 17.143742 17.143742 0 0 1-2.873807-9.447225 14.864516 14.864516 0 0 1 4.162065-10.785033 13.972645 13.972645 0 0 1 10.471225-4.310709h59.623226a14.03871 14.03871 0 0 1 10.45471 4.327225 14.534194 14.534194 0 0 1 3.138064 4.855742 16.152774 16.152774 0 0 1 0.545033 9.711484c0.346839 1.436903 0.528516 2.708645 0.528516 3.79871v46.37729c0 1.090065-0.165161 2.34529-0.528516 3.782194 0.346839 1.090065 0.528516 2.34529 0.528516 3.782193 0 14.03871-1.932387 27.581935-5.764129 40.712258a131.055484 131.055484 0 0 1-16.730839 36.137291 143.756387 143.756387 0 0 1-25.633032 29.134451c-9.744516 8.456258-20.645161 15.36-32.68542 20.760774a124.994065 124.994065 0 0 1-37.921032 10.256517v70.127483c0 1.436903-0.165161 2.692129-0.512 3.782194 0 0.72671 0.082581 1.354323 0.264258 1.882839s0.264258 1.156129 0.264258 1.882838c0 8.258065 0.875355 16.450065 2.609549 24.542968 1.75071 8.092903 4.360258 15.640774 7.861677 22.660129 3.484903 7.019355 7.597419 13.675355 12.271484 19.951484 4.707097 6.276129 10.107871 11.858581 16.218839 16.730839 6.110968 4.855742 12.568774 9.083871 19.356903 12.667871 6.771613 3.567484 14.104774 6.276129 21.966452 8.092903 7.861677 1.816774 15.805935 2.708645 23.799742 2.692129 27.895742 0 51.959742-9.975742 72.175483-29.927226 20.232258-19.951484 30.868645-44.312774 31.909162-73.083871-12.221935-3.600516-22.329806-10.702452-30.340129-21.305806a57.922065 57.922065 0 0 1-12.040258-35.856516c0-16.185806 5.582452-30.108903 16.730838-41.802323 11.164903-11.693419 24.675097-17.540129 40.547097-17.540129 15.855484 0 29.365677 5.84671 40.530581 17.540129A58.467097 58.467097 0 0 1 726.709677 535.76671a59.392 59.392 0 0 1-12.040258 36.13729 58.384516 58.384516 0 0 1-13.592774 12.948645c-5.252129 3.584-10.834581 6.276129-16.747355 8.092903-1.040516 39.556129-16.037161 72.637935-44.973419 99.24542-25.81471 23.006968-55.444645 34.51871-88.922839 34.518709a129.23871 129.23871 0 0 1-52.025806-10.785032 132.756645 132.756645 0 0 1-42.892387-29.39871 136.91871 136.91871 0 0 1-28.506839-44.230193 141.09729 141.09729 0 0 1-10.45471-53.677419c0-1.073548 0.165161-2.312258 0.512-3.765678a12.436645 12.436645 0 0 1-0.512-3.782193v-70.127484c-37.656774-3.963871-67.996903-21.388387-91.003871-52.306581A142.517677 142.517677 0 0 1 297.290323 373.958194c0-0.72671 0.082581-1.354323 0.264258-1.882839a5.896258 5.896258 0 0 0 0.264258-1.882839v-0.049548z" fill="#ffffff" p-id="12497" data-spm-anchor-id="a313x.7781069.0.i17" class="selected"></path></svg>