<svg t="1607072036786" class="icon" viewBox="0 0 1024 1024" version="1.1" xmlns="http://www.w3.org/2000/svg" p-id="6631" width="200" height="200"><path d="M512 512m-512 0a512 512 0 1 0 1024 0 512 512 0 1 0-1024 0Z" fill="#cdcdcd" p-id="6632" data-spm-anchor-id="a313x.7781069.0.i6" class="selected"></path><path d="M691.306632 325.393143H382.400513a57.417494 57.417494 0 0 0-57.417495 57.417495v55.694969h-52.003845v-106.632489a16.404998 16.404998 0 0 0-32.809996 0v338.024992a16.404998 16.404998 0 0 0 32.809996 0V569.745594h51.92182v59.14002a57.417494 57.417494 0 0 0 57.417495 57.417494h308.988144a57.417494 57.417494 0 0 0 57.417495-57.417494v-246.074976a57.417494 57.417494 0 0 0-57.417495-57.417495zM324.983018 536.935598h-52.003845v-65.619994h51.92182z m390.931112 91.950016a24.607498 24.607498 0 0 1-24.607498 24.607497H382.400513a24.607498 24.607498 0 0 1-24.607498-24.607497v-246.074976a24.607498 24.607498 0 0 1 24.607498-24.607498h308.906119a24.607498 24.607498 0 0 1 24.607498 24.607498z" fill="#ffffff" p-id="6633" data-spm-anchor-id="a313x.7781069.0.i7" class=""></path><path d="M612.39859 480.256328h-61.518744v-61.518744a16.404998 16.404998 0 1 0-32.809997 0v61.518744h-61.518744a16.404998 16.404998 0 0 0-16.404998 16.404998 16.404998 16.404998 0 0 0 16.404998 16.404999h61.518744v61.518744a16.404998 16.404998 0 0 0 32.809997 0v-61.518744h61.518744a16.404998 16.404998 0 0 0 16.404999-16.404999 16.404998 16.404998 0 0 0-16.404999-16.404998z" fill="#ffffff" p-id="6634" data-spm-anchor-id="a313x.7781069.0.i8" class=""></path></svg>