<?xml version="1.0" encoding="utf-8"?>
<svg version="1.1" xmlns:xlink="http://www.w3.org/1999/xlink" width="8px" height="14px" xmlns="http://www.w3.org/2000/svg">
  <g transform="matrix(1 0 0 1 -50 -76 )">
    <path d="M 7.86254295532646 0.82924469628913  C 7.95418098510882 0.921382995876805  8 1.02734204040264  8 1.14712182986663  C 8 1.26690161933062  7.95418098510882 1.37286066385645  7.86254295532646 1.46499896344413  L 2.46048109965636 6.89655172413792  L 7.86254295532646 12.3281044848317  C 7.95418098510882 12.4202427844194  8 12.5262018289452  8 12.6459816184092  C 8 12.7657614078732  7.95418098510882 12.871720452399  7.86254295532646 12.9638587519867  L 7.17525773195877 13.6548959988943  C 7.08361970217641 13.747034298482  6.97823596792671 13.7931034482758  6.85910652920964 13.7931034482758  C 6.73997709049254 13.7931034482758  6.63459335624285 13.747034298482  6.54295532646049 13.6548959988943  L 0.137457044673539 7.21442885771543  C 0.0458190148911797 7.12229055812774  0 7.01633151360191  0 6.89655172413792  C 0 6.77677193467393  0.0458190148911797 6.6708128901481  0.137457044673539 6.57867459056042  L 6.54295532646049 0.138207449381518  C 6.63459335624285 0.046069149793837  6.73997709049254 0  6.85910652920964 0  C 6.97823596792671 0  7.08361970217641 0.046069149793837  7.17525773195877 0.138207449381518  L 7.86254295532646 0.82924469628913  Z " fill-rule="nonzero" fill="#666666" stroke="none" transform="matrix(1 0 0 1 50 76 )" />
  </g>
</svg>