<svg t="1602311562395" class="icon" viewBox="0 0 1024 1024" version="1.1" xmlns="http://www.w3.org/2000/svg" p-id="21431" width="200" height="200"><path d="M1024 508.555636C1024 225.28 791.04 0 510.231273 0 226.071273 3.397818-3.397818 232.075636 0.046545 515.397818c3.397818 283.275636 232.866909 512 517.12 508.555637 280.762182-3.397818 510.231273-232.075636 506.78691-515.397819z" fill="#32CE6D" opacity=".095" p-id="21432"></path><path d="M882.734545 511.674182a34.257455 34.257455 0 0 1-34.210909 34.117818h-102.772363c-13.684364 102.4-95.883636 184.32-202.007273 201.402182v102.4a34.257455 34.257455 0 0 1-68.514909 0v-102.4c-102.725818-17.082182-184.925091-99.002182-198.609455-201.402182H173.893818A34.257455 34.257455 0 0 1 139.636364 511.674182c0-17.082182 13.684364-34.117818 34.257454-34.117818h102.725818c13.684364-102.4 95.883636-184.32 202.007273-201.402182v-102.4c0-17.035636 13.730909-34.117818 34.257455-34.117818 20.573091 0 34.257455 13.637818 34.257454 34.117818v102.4c102.725818 13.684364 184.925091 95.557818 202.053818 201.402182h102.725819c13.684364 0 30.813091 17.035636 30.81309 34.117818zM512 605.090909a93.090909 93.090909 0 1 0 0-186.181818 93.090909 93.090909 0 0 0 0 186.181818z" fill="#32CE6D" p-id="21433"></path></svg>