<svg t="1607318114672" class="icon" viewBox="0 0 1024 1024" version="1.1" xmlns="http://www.w3.org/2000/svg" p-id="4384" width="200" height="200"><path d="M512 512m-512 0a512 512 0 1 0 1024 0 512 512 0 1 0-1024 0Z" fill="#F7BA4D" p-id="4385"></path><path d="M967.68 512A454.4 454.4 0 0 0 120.32 282.24l763.52 491.52A452.48 452.48 0 0 0 967.68 512z" fill="#FFEB64" p-id="4386"></path><path d="M56.32 512a455.04 455.04 0 0 0 796.8 301.44c10.88-12.8 21.12-26.24 30.72-39.68L120.32 282.24a448 448 0 0 0-40.32 84.48A476.16 476.16 0 0 0 56.32 512z" fill="#FACB4E" p-id="4387"></path><path d="M167.68 323.84v133.76l102.4 1.92 158.72 357.12h133.76l316.8-492.8H602.24v58.88h80L523.52 633.6 382.08 323.84H167.68z" fill="#EA9939" p-id="4388"></path><path d="M172.16 288v133.12l102.4 2.56 158.72 356.48h133.76l316.8-492.16H606.72v58.88h80L528 597.12 386.56 288H172.16z" fill="#FFFFFF" p-id="4389"></path><path d="M945.92 396.16a32.64 32.64 0 0 1-30.08-21.12A441.6 441.6 0 0 0 698.24 128a32 32 0 0 1 28.8-57.6 505.6 505.6 0 0 1 248.96 281.6 31.36 31.36 0 0 1-19.2 40.96 30.08 30.08 0 0 1-10.88 3.2z" fill="#FFFFFF" p-id="4390"></path></svg>