<svg t="1607071907237" class="icon" viewBox="0 0 1024 1024" version="1.1" xmlns="http://www.w3.org/2000/svg" p-id="36100" width="200" height="200"><path d="M0 512c0 281.6 230.4 512 512 512s512-230.4 512-512S793.6 0 512 0 0 230.4 0 512z" fill="#F6F5F1" p-id="36101"></path><path d="M57.6 512c0 249.6 201.6 454.4 454.4 454.4S966.4 761.6 966.4 512 761.6 57.6 512 57.6 57.6 262.4 57.6 512z" fill="#cdcdcd" p-id="36102" data-spm-anchor-id="a313x.7781069.0.i50" class="selected"></path><path d="M512 256c-140.8 0-256 99.2-256 220.8 0 73.6 38.4 137.6 102.4 176V768l92.8-73.6c19.2 3.2 38.4 6.4 57.6 6.4 140.8 0 256-99.2 256-220.8 3.2-124.8-112-224-252.8-224z m80 304h-160c-9.6 0-16-6.4-16-16s6.4-16 16-16h160c9.6 0 16 6.4 16 16s-6.4 16-16 16z m32-96h-224c-9.6 0-16-6.4-16-16s6.4-16 16-16h224c9.6 0 16 6.4 16 16s-6.4 16-16 16z" fill="#FFFFFF" p-id="36103"></path></svg>