<svg t="1607072128673" class="icon" viewBox="0 0 1024 1024" version="1.1" xmlns="http://www.w3.org/2000/svg" p-id="11554" width="200" height="200"><path d="M525.344 498.656m-498.656 0a498.656 498.656 0 1 0 997.312 0 498.656 498.656 0 1 0-997.312 0Z" fill="#cdcdcd" p-id="11555" data-spm-anchor-id="a313x.7781069.0.i12" class="selected"></path><path d="M429.472 259.808h18.752v10.368c0 2.048 0.672 3.936 1.536 5.632 0.864 4.928 4.928 8.64 10.016 8.64 3.456 0 6.4-1.792 8.32-4.384a12.48 12.48 0 0 0 5.152-9.888v-10.368h14.592a12.576 12.576 0 0 0 0-25.12h-14.56v-15.552a12.544 12.544 0 1 0-25.088 0v15.584h-18.752a12.544 12.544 0 0 0 0.032 25.088z" fill="#FFFFFF" p-id="11556"></path><path d="M217.888 712.128c-3.072 12.672-8.512 45.28 8.8 68.96 6.752 9.248 19.808 20.576 43.84 22.208 23.232 1.632 88.768 3.264 194.848 4.768h0.736c105.6-1.568 170.848-3.232 193.984-4.768 24-1.696 37.088-12.96 43.808-22.208 17.248-23.584 11.904-56.096 8.768-69.088l-0.768-2.4c-34.08-82.912-105.12-143.84-189.728-162.912l-6.624-1.44 5.536-3.968c52.384-37.312 84.896-116.224 84.896-205.92 0-58.816-14.496-114.56-40.736-156.992l-2.624-4.192-4.64-1.696a296.704 296.704 0 0 0-201.696 0l-4.608 1.696-2.624 4.192C322.752 220.8 308.288 276.512 308.288 335.36c0 91.328 34.912 173.248 88.896 208.768l5.6 3.648-6.464 1.792c-80.064 22.016-144.8 80.48-177.664 160.224l-0.768 2.336z m119.936-391.072c2.016-46.816 13.248-89.088 32.512-122.336l0.576-0.96 1.088-0.384a268.864 268.864 0 0 1 170.272 0l1.088 0.384 0.576 0.992c19.2 33.216 30.432 75.488 32.512 122.112l0.192 3.872-3.744-0.736c-105.216-20.736-196.896-6.784-231.424 0.192l-3.776 0.736 0.128-3.872z m-0.064 35.872l-0.224-2.624 2.592-0.576c27.328-5.888 124.896-23.232 234.016-0.224l2.56 0.544-0.192 2.624c-6.688 99.552-59.2 177.568-119.36 177.568-60.192 0-112.576-77.888-119.392-177.312zM245.504 719.904c38.24-91.456 123.424-150.56 217.28-151.04l2.688 0.16 1.472-0.032c94.592 0.352 179.904 59.36 217.952 150.432 1.728 7.328 6.016 30.752-4.128 44.672-4.672 6.368-12.064 9.888-22.688 10.56-22.56 1.568-85.504 3.136-192.32 4.672h-0.864c-106.88-1.568-169.824-3.168-192.384-4.672-10.624-0.672-18.016-4.192-22.688-10.56-10.176-13.92-5.856-37.28-4.32-44.192z" fill="#FFFFFF" p-id="11557"></path><path d="M847.136 705.056c-27.616-86.624-88.544-119.328-128.768-141.024-6.4-3.392-12.416-6.656-17.664-9.856-7.328-4.256-14.752-7.712-21.376-10.88a193.408 193.408 0 0 1-11.52-5.728c91.328-135.776 79.584-256.512 79.136-261.024-3.584-69.44-70.656-94.368-105.6-97.856l-11.584-1.12-2.24 23.072 11.52 1.184c3.328 0.32 81.28 8.8 84.768 76.576 0.096 0.544 2.304 25.696-3.552 64.992-26.432-10.56-66.304-13.024-71.68-13.312l-1.184 23.136c19.648 0.992 52.992 5.44 68.672 13.344-9.472 45.248-29.472 103.392-71.456 164l-1.312 2.336c-6.24 16.064 11.008 24.192 26.176 31.328 6.048 2.912 12.864 6.016 19.424 9.92 5.536 3.328 11.744 6.688 18.496 10.304 39.232 21.024 92.864 49.984 117.312 126.016 4.64 29.12 0.192 38.432-1.952 41.056-0.992 1.312-2.592 2.624-6.72 2.912-15.392 1.024-35.968 1.6-36.032 1.6l0.672 23.2s21.12-0.608 36.864-1.664c9.952-0.672 17.76-4.608 23.328-11.52 9.152-11.488 11.232-30.272 6.272-60.992z" fill="#FFFFFF" p-id="11558"></path></svg>