<svg t="1607303655257" class="icon" viewBox="0 0 1024 1024" version="1.1" xmlns="http://www.w3.org/2000/svg" p-id="1914" width="200" height="200"><path d="M749.1 111.6c-3.7 43-19.2 82.6-43.1 115.7C809 291.9 877.5 406.5 877.5 537c0 201.8-163.6 365.5-365.5 365.5S146.5 738.9 146.5 537c0-133.8 71.9-250.8 179.2-314.5-23.1-33.6-37.5-73.6-40.2-116.7C130.6 187.4 25 349.9 25 537c0 268.9 218 487 487 487s487-218 487-487c0-182.8-100.9-342.2-249.9-425.4z" fill="#cdcdcd" p-id="1915"></path><path d="M525.8 539.4c-30.7 0-55.7-24.9-55.7-55.7v-428C470.1 25 495 0 525.8 0c30.7 0 55.7 24.9 55.7 55.7v428.1c0 30.7-24.9 55.6-55.7 55.6z" fill="#cdcdcd" p-id="1916"></path></svg>