<?xml version="1.0" encoding="utf-8"?>
<svg version="1.1" xmlns:xlink="http://www.w3.org/1999/xlink" width="60px" height="60px" xmlns="http://www.w3.org/2000/svg">
  <defs>
    <path d="M 0 0  L 1024 0  L 1024 1024  L 0 1024  Z " fill-rule="evenodd" fill="black" id="path8" />
    <clipPath id="clip9">
      <use xlink:href="#path8" />
    </clipPath>
    <filter x="-50.00%" y="-50.00%" width="200.00%" height="200.00%" filterUnits="objectBoundingBox" id="filter10">
      <feColorMatrix type="matrix" values="1 0 0 0 0  0 1 0 0 0  0 0 1 0 0  0 0 0 1 0  " in="SourceGraphic" />
    </filter>
    <filter x="1097px" y="116px" width="60px" height="60px" filterUnits="userSpaceOnUse" id="filter11">
      <feOffset dx="0" dy="0" in="SourceAlpha" result="shadowOffsetInner" />
      <feGaussianBlur stdDeviation="2.5" in="shadowOffsetInner" result="shadowGaussian" />
      <feComposite in2="shadowGaussian" operator="atop" in="SourceAlpha" result="shadowComposite" />
      <feColorMatrix type="matrix" values="0 0 0 0 0  0 0 0 0 0  0 0 0 0 0  0 0 0 0.349019607843137 0  " in="shadowComposite" />
    </filter>
    <g id="widget12">
      <g transform="matrix(0.048828125 0 0 0.048828125 1102 121 )" clip-path="url(#clip9)" filter="url(#filter10)">
        <path d="M32 32h960v960H32z" fill="#E97293" p-id="12815"></path>
        <path d="M716.8 281.6H243.2v460.8h473.6c25.6 0 44.8-19.2 44.8-44.8V326.4c0-25.6-19.2-44.8-44.8-44.8zM368 713.6H278.4V310.4h89.6v403.2z m307.2-179.2h-89.6v89.6h-44.8v-89.6h-89.6v-44.8h89.6v-89.6h44.8v89.6h89.6v44.8z" fill="#FFFFFF" p-id="12816"></path>
      </g>
    </g>
  </defs>
  <g transform="matrix(1 0 0 1 -1097 -116 )">
    <use xlink:href="#widget12" filter="url(#filter11)" />
    <use xlink:href="#widget12" />
  </g>
</svg>