<svg t="1607060532635" class="icon" viewBox="0 0 1024 1024" version="1.1" xmlns="http://www.w3.org/2000/svg" p-id="12956" width="200" height="200"><path d="M242.036364 521.309091H558.545455v55.854545H242.036364zM242.036364 716.8H674.909091v55.854545H242.036364zM537.6 307.2c-9.309091 2.327273-16.290909 4.654545-25.6 4.654545s-18.618182-2.327273-25.6-4.654545L388.654545 442.181818h249.018182l-100.072727-134.981818z" fill="#68A9F4" p-id="12957"></path><path d="M896 0h-768C58.181818 0 0 58.181818 0 128v768c0 69.818182 58.181818 128 128 128h768c69.818182 0 128-58.181818 128-128v-768c0-69.818182-58.181818-128-128-128z m-53.527273 816.872727c0 13.963636-11.636364 25.6-25.6 25.6H204.8c-13.963636 0-25.6-11.636364-25.6-25.6V465.454545c0-13.963636 11.636364-25.6 25.6-25.6h155.927273l107.054545-146.618181c-11.636364-13.963636-20.945455-30.254545-20.945454-48.872728 0-34.909091 27.927273-65.163636 65.163636-65.163636 34.909091 0 65.163636 27.927273 65.163636 65.163636 0 18.618182-6.981818 37.236364-20.945454 48.872728l109.381818 146.618181h153.6c13.963636 0 25.6 11.636364 23.272727 25.6v351.418182z" fill="#68A9F4" p-id="12958"></path><path d="M242.036364 674.909091H744.727273v-55.854546H242.036364z" fill="#68A9F4" p-id="12959"></path></svg>