<?xml version="1.0" encoding="utf-8"?>
<svg version="1.1" xmlns:xlink="http://www.w3.org/1999/xlink" width="50px" height="50px" xmlns="http://www.w3.org/2000/svg">
  <defs>
    <path d="M 0 0  L 1024 0  L 1024 1024  L 0 1024  Z " fill-rule="evenodd" fill="black" id="path101" />
    <clipPath id="clip102">
      <use xlink:href="#path101" />
    </clipPath>
    <filter x="-50.00%" y="-50.00%" width="200.00%" height="200.00%" filterUnits="objectBoundingBox" id="filter103">
      <feColorMatrix type="matrix" values="1 0 0 0 0  0 1 0 0 0  0 0 1 0 0  0 0 0 1 0  " in="SourceGraphic" />
    </filter>
  </defs>
  <g transform="matrix(1 0 0 1 -1279 -121 )">
    <g transform="matrix(0.048828125 0 0 0.048828125 1279 121 )" clip-path="url(#clip102)" filter="url(#filter103)">
      <path d="M0 0m128 0l768 0q128 0 128 128l0 768q0 128-128 128l-768 0q-128 0-128-128l0-768q0-128 128-128Z" fill="#2BBFA2" p-id="1937"></path>
      <path d="M800.512 317.44h-144.64V225.28A47.36 47.36 0 0 0 607.488 179.2H414.72a47.36 47.36 0 0 0-48.384 46.08v92.16H221.696A94.72 94.72 0 0 0 125.184 409.6v368.64A94.72 94.72 0 0 0 221.696 870.4h578.816A94.72 94.72 0 0 0 896 778.24V409.6a94.72 94.72 0 0 0-95.488-92.16zM414.72 213.248h192.768V307.2H414.72z m289.28 417.792h-144.64v139.264h-96.512v-139.264h-144.64V537.6h144.64v-138.752h96.512V537.6h144.64z" fill="#ffffff" p-id="1938" data-spm-anchor-id="a313x.7781069.0.i1" class="selected"></path>
    </g>
  </g>
</svg>