<svg t="1607061174569" class="icon" viewBox="0 0 1024 1024" version="1.1" xmlns="http://www.w3.org/2000/svg" p-id="2862" width="200" height="200"><path d="M1012.50844445 482.87288889C1004.65777778 471.60888889 816.58311111 206.16533333 512 206.16533333S19.22844445 471.60888889 11.37777778 482.87288889c-12.17422222 17.52177778-12.17422222 40.73244445 0 58.14044444 7.85066667 11.37777778 196.03911111 276.70755555 500.62222222 276.70755556s492.77155555-265.44355555 500.50844445-276.70755556c12.288-17.408 12.288-40.61866667 0-58.14044444zM512 766.86222222c-281.6 0-458.752-254.86222222-458.752-254.86222222S230.4 257.13777778 512 257.13777778c281.48622222 0 458.752 254.86222222 458.752 254.86222222S793.48622222 766.86222222 512 766.86222222z" fill="#666666" p-id="2863"></path><path d="M512 308.11022222c-112.64 0-203.88977778 91.36355555-203.88977778 203.88977778 0 112.64 91.24977778 203.88977778 203.88977778 203.88977778 112.52622222 0 203.88977778-91.24977778 203.88977778-203.88977778 0-112.52622222-91.36355555-203.88977778-203.88977778-203.88977778z m0 356.80711111c-84.30933333 0-152.91733333-68.608-152.91733333-152.91733333 0-84.30933333 68.608-152.91733333 152.91733333-152.91733333 84.30933333 0 152.91733333 68.608 152.91733333 152.91733333 0 84.30933333-68.608 152.91733333-152.91733333 152.91733333z" fill="#666666" p-id="2864"></path></svg>