<svg t="1607063377874" class="icon" viewBox="0 0 1024 1024" version="1.1" xmlns="http://www.w3.org/2000/svg" p-id="6325" width="200" height="200"><path d="M702 765.6c-10-30.9-24.4-60.6-43.2-87.1-10.1-14.2-21-27.8-33.1-40.3-12.1-12.6-25.4-23.7-39.2-34.3-20.6-15.8-43.1-28.5-66.9-38.7 14.2-9.2 27.6-19.9 39.9-32.2 45-45 69.7-104.7 69.7-168.3s-24.8-123.4-69.7-168.3-104.7-69.7-168.3-69.7-123.4 24.8-168.3 69.7c-45 45-69.7 104.7-69.7 168.3S177.9 488 222.9 533c12.2 12.2 25.5 22.9 39.7 32.1-17.1 7.3-33.6 16.1-49 26.3-26.8 17.7-51.6 39-72 63.8-11.1 13.4-21.5 27.5-30.4 42.4-9 15-16.3 30.8-23 46.9-12.8 31-19.7 64.1-22.3 97.5-0.6 7.7-0.9 15.4-0.9 23.1 0 8.2 3.6 16.8 9.4 22.6 5.6 5.6 14.7 9.7 22.6 9.4 8.3-0.4 16.9-3.1 22.6-9.4 5.8-6.3 9.4-14 9.4-22.6 0-11.9 0.7-23.7 2.1-35.5 3.5-22.9 9.6-45.2 18.2-66.7 9.1-20.7 20.6-40.2 34.1-58.3 14-17.5 29.9-33.5 47.5-47.5 18.1-13.5 37.6-25 58.3-34.1 21.4-8.7 43.8-14.8 66.7-18.2 23.5-2.8 47.4-2.8 70.9 0 22.9 3.5 45.2 9.6 66.7 18.2 20.7 9.1 40.2 20.6 58.3 34.1 17.5 14 33.5 29.9 47.5 47.5 13.5 18.1 25 37.6 34.1 58.3 8.7 21.4 14.8 43.8 18.2 66.7 1.4 11.8 2.1 23.6 2.1 35.5 0 8.2 3.6 16.8 9.4 22.6 5.6 5.6 14.7 9.7 22.6 9.4 8.3-0.4 16.9-3.1 22.6-9.4 5.7-6.3 9.4-14 9.4-22.6-0.2-33.6-5.3-67.6-15.7-99.5zM217.2 364.7c0-96 78.1-174 174-174s174 78.1 174 174c0 96-78.1 174-174 174s-174-78-174-174z" fill="#1296db" p-id="6326"></path><path d="M717.9 470.9H829.7c8.2 0 16.8-3.6 22.6-9.4 5.6-5.6 9.7-14.7 9.4-22.6-0.4-8.3-3.1-16.9-9.4-22.6-6.3-5.7-14-9.4-22.6-9.4H717.9c-8.2 0-16.8 3.6-22.6 9.4-5.6 5.6-9.7 14.7-9.4 22.6 0.4 8.3 3.1 16.9 9.4 22.6 6.2 5.8 13.9 9.4 22.6 9.4zM737.5 620.8H829.7c8.2 0 16.8-3.6 22.6-9.4 5.6-5.6 9.7-14.7 9.4-22.6-0.4-8.3-3.1-16.9-9.4-22.6-6.3-5.7-14-9.4-22.6-9.4H737.5c-8.2 0-16.8 3.6-22.6 9.4-5.6 5.6-9.7 14.7-9.4 22.6 0.4 8.3 3.1 16.9 9.4 22.6 6.2 5.7 13.9 9.4 22.6 9.4z" fill="#1296db" p-id="6327"></path><path d="M693.4 317.9h176.8c2.6 0 5.1 0.2 7.6 0.5-2.8-0.4-5.7-0.8-8.5-1.1 5.1 0.7 10.1 2 14.9 4-2.5-1.1-5.1-2.2-7.6-3.2 4.7 2 9 4.5 13.1 7.6-2.2-1.7-4.3-3.3-6.5-5 4 3.1 7.5 6.6 10.6 10.6-1.7-2.2-3.3-4.3-5-6.5 3.1 4 5.7 8.3 7.7 13-1.1-2.5-2.2-5.1-3.2-7.6 2.1 5 3.5 10.2 4.2 15.5-0.4-2.8-0.8-5.7-1.1-8.5 0.6 5 0.5 10.1 0.5 15.1V680.4c0 2.6-0.2 5.2-0.5 7.8 0.4-2.8 0.8-5.7 1.1-8.5-0.7 5.4-2.1 10.6-4.2 15.5 1.1-2.5 2.2-5.1 3.2-7.6-2 4.6-4.6 9-7.7 13 1.7-2.2 3.3-4.3 5-6.5-3.1 3.9-6.7 7.5-10.6 10.6 2.2-1.7 4.3-3.3 6.5-5-4 3.1-8.4 5.6-13.1 7.6 2.5-1.1 5.1-2.2 7.6-3.2-4.8 2-9.8 3.3-14.9 4 2.8-0.4 5.7-0.8 8.5-1.1-4.9 0.6-9.8 0.5-14.7 0.5H772.8c-8.2 0-16.8 3.6-22.6 9.4-5.6 5.6-9.7 14.7-9.4 22.6 0.4 8.3 3.1 16.9 9.4 22.6 6.3 5.7 14 9.4 22.6 9.4H850c13.5 0 26.7 0.4 40.1-2.2 8.1-1.6 16.1-4.9 23.3-8.7 7.1-3.7 13.7-8.8 19.5-14.3 2.1-1.9 4-4 5.8-6.2 3.3-4.1 6.7-8.4 9.5-12.9 2.8-4.7 4.7-9.7 6.8-14.7 1.1-2.7 2.1-5.4 2.8-8.2 2.5-9.7 3.1-19.6 3.1-29.6v-23.4-36.9-46-50.8-51.2-47.2-38.9-26.2c0-4 0.1-8-0.1-12-0.4-8.4-1.6-17.2-4.4-25.2-2.7-7.6-5.9-15.3-10.6-22-4.7-6.6-9.8-13.2-16.1-18.4-6.5-5.2-12.9-10.1-20.5-13.4-5-2.2-10-4.4-15.2-5.8-5.3-1.4-10.8-2-16.2-2.7-2.7-0.3-5.3-0.5-8-0.5H693.3c-8.2 0-16.8 3.6-22.6 9.4-5.6 5.6-9.7 14.7-9.4 22.6 0.4 8.3 3.1 16.9 9.4 22.6 6.3 5.6 14 9.2 22.7 9.2z" fill="#1296db" p-id="6328"></path></svg>