<svg t="1607063336599" class="icon" viewBox="0 0 1024 1024" version="1.1" xmlns="http://www.w3.org/2000/svg" p-id="5428" width="200" height="200"><path d="M716.8 512a256 256 0 1 1 0 512 256 256 0 0 1 0-512z m51.2-486.4A76.8 76.8 0 0 1 844.8 102.4v386.2528a304.9472 304.9472 0 0 0-51.2-18.176V102.4a25.6 25.6 0 0 0-25.6-25.6H153.6a25.6 25.6 0 0 0-25.6 25.6v819.2a25.6 25.6 0 0 0 25.6 25.6h313.7024c13.4656 18.7904 29.0304 35.9936 46.336 51.2H153.6A76.8 76.8 0 0 1 76.8 921.6V102.4A76.8 76.8 0 0 1 153.6 25.6h614.4zM716.8 563.2a204.8 204.8 0 1 0 0 409.6 204.8 204.8 0 0 0 0-409.6z m0 25.6a25.6 25.6 0 0 1 25.1904 20.992l0.4096 4.608v128h84.6336a25.6 25.6 0 0 1 25.1904 20.992l0.4096 4.608a25.6 25.6 0 0 1-25.6 25.6H716.8a25.6 25.6 0 0 1-25.1904-20.992L691.2 768v-153.6a25.6 25.6 0 0 1 25.6-25.6z" fill="#1296db" p-id="5429"></path><path d="M204.8 256h512a25.6 25.6 0 1 0 0-51.2H204.8a25.6 25.6 0 0 0 0 51.2zM204.8 435.2h307.2a25.6 25.6 0 1 0 0-51.2H204.8a25.6 25.6 0 0 0 0 51.2z" fill="#1296db" p-id="5430"></path></svg>