<svg t="1607063417471" class="icon" viewBox="0 0 1024 1024" version="1.1" xmlns="http://www.w3.org/2000/svg" p-id="6932" width="200" height="200"><path d="M235.833193 585.163323h551.524179c6.272867 0 12.546757 6.272867 12.546757 12.546758v47.048549c0 6.272867-6.272867 12.546757-12.546757 12.546757H232.69676c-6.272867 0-12.546757-6.272867-12.546758-12.546757v-47.048549c3.137457-6.27389 9.410324-12.546757 15.683191-12.546758z m0 192.73563h551.524179c6.272867 0 12.546757 6.272867 12.546757 12.546757v47.048549c0 6.272867-6.272867 12.546757-12.546757 12.546757H235.833193c-6.272867 0-12.546757-6.272867-12.546757-12.546757V790.44571c0.001023-6.27389 6.27389-12.546757 12.546757-12.546757z m676.534334 63.441914v121.68748H110.680798V188.932 66.223261h587.945693l69.004607-65.486481h-627.317399c-50.184983 0-94.097098 40.775682-94.097098 94.097099V929.165098c0 50.184983 40.775682 94.097098 94.097098 94.097098h743.370555c50.184983 0 94.098121-40.775682 94.098122-94.097098V261.07304l-64.464198 69.004607-0.950651 511.26322zM849.182462 47.78533c6.272867-9.4093 15.683191-21.956058 21.956058-28.228925 15.683191-15.683191 37.639249-12.546757 50.184983-9.409301 12.545734 6.272867 34.502815 21.956058 47.048549 40.775682 6.272867 12.546757 12.545734 28.228925 0 47.048549-12.546757 15.683191-21.956058 28.228925-21.956058 28.228925l-97.233532-78.41493z m-31.365358 40.775682s-161.200402 220.7251-173.747159 236.408291c-6.272867 9.410324-9.4093 15.683191-12.546758 25.092491-3.136433 12.546757-12.546757 72.14104-15.683191 87.824231 0 15.683191 6.272867 21.956058 21.956058 18.819625 15.683191-3.136433 69.004607-28.228925 84.687798-40.775683 9.4093-6.272867 15.683191-12.546757 21.956058-18.819624 9.4093-9.4093 170.610726-233.270834 170.610726-233.270834l-97.233532-75.278497z" fill="#1296db" p-id="6933"></path><path d="M522.745738 288.832268h-97.195669v-97.19567c0-19.833721-16.22759-36.06131-36.06131-36.06131h-0.017397c-19.833721 0-36.06131 16.22759-36.06131 36.06131v97.19567h-97.195669c-19.833721 0-36.06131 16.22759-36.061311 36.06131v0.017396c0 19.833721 16.22759 36.06131 36.061311 36.061311h97.195669V458.167954c0 19.833721 16.22759 36.06131 36.06131 36.061311h0.017397c19.833721 0 36.06131-16.22759 36.06131-36.061311v-97.195669h97.195669c19.833721 0 36.06131-16.22759 36.061311-36.061311v-0.017396c0.001023-19.833721-16.226566-36.06131-36.061311-36.06131z" fill="#1296db" p-id="6934"></path></svg>