<svg t="1607063458213" class="icon" viewBox="0 0 1024 1024" version="1.1" xmlns="http://www.w3.org/2000/svg" p-id="7907" width="200" height="200"><path d="M958.25 836H65.75c-11.25 0-20.25-9-20.25-20.25V60.5c0-11.25 9-20.25 20.25-20.25h892.5c11.25 0 20.25 9 20.25 20.25v756c0 10.5-9 19.5-20.25 19.5zM86 796.25h852.75V80H86v716.25zM835.25 954.5H188.75c-11.25 0-20.25-9-20.25-21 0-11.25 9-21 20.25-21h647.25c11.25 0 21 9 21 21-0.75 12-10.5 21-21.75 21z" fill="#1296db" p-id="7908"></path><path d="M119 545c0-12 9.75-22.5 22.5-22.5h174c12.75 0 22.5 9.75 22.5 22.5 0 12-9.75 22.5-22.5 22.5H141.5c-12 0-22.5-9.75-22.5-22.5z" fill="#1296db" p-id="7909"></path><path d="M306.5 563.75c-10.5-6.75-12.75-21-5.25-30.75L399.5 389.75c6.75-10.5 21-12.75 30.75-6 10.5 6.75 12.75 21 5.25 30.75l-97.5 143.25c-6.75 9.75-21 12.75-31.5 6z" fill="#1296db" p-id="7910"></path><path d="M410.75 380.75c12-3.75 25.5 5.25 30.75 21L514.25 617c5.25 15.75 0 30.75-12 35.25-12 3.75-25.5-5.25-30.75-21L399.5 415.25c-5.25-14.25 0-30.75 11.25-34.5z" fill="#1296db" p-id="7911"></path><path d="M633.5 253.25c11.25 3.75 14.25 25.5 6.75 48L528.5 617.75c-8.25 22.5-24 37.5-35.25 33.75s-14.25-25.5-6.75-48L598.25 287c7.5-21.75 23.25-38.25 35.25-33.75z" fill="#1296db" p-id="7912"></path><path d="M621.5 253.25c12-3.75 25.5 5.25 30.75 21L724.25 489.5c5.25 15.75 0 30.75-12 35.25-12 3.75-25.5-5.25-30.75-21l-72.75-215.25c-3.75-15 0.75-31.5 12.75-35.25z" fill="#1296db" p-id="7913"></path><path d="M686 503.75c0-12 9.75-22.5 22.5-22.5h174c12.75 0 22.5 9.75 22.5 22.5 0 12-9.75 22.5-22.5 22.5H708.5c-11.25 0-22.5-9.75-22.5-22.5z" fill="#1296db" p-id="7914"></path></svg>