<svg t="1607067763844" class="icon" viewBox="0 0 1024 1024" version="1.1" xmlns="http://www.w3.org/2000/svg" p-id="11458" width="200" height="200"><path d="M511.744 591.36a225.28 225.28 0 0 0 37.376-3.072A235.52 235.52 0 0 0 704.256 358.4a252.928 252.928 0 0 0-5.12-42.496l-109.056-22.016a1165.312 1165.312 0 0 0-158.208 0l-114.176 23.04A63.488 63.488 0 0 1 289.536 307.2a222.208 222.208 0 0 0-6.656 51.2 231.424 231.424 0 0 0 228.864 232.96zM506.112 419.84c43.52 0 78.848-22.016 78.848 15.872a74.24 74.24 0 0 1-78.848 68.608 74.24 74.24 0 0 1-78.848-68.608c0-37.888 35.328-15.872 78.848-15.872z" fill="#cdcdcd" p-id="11459"></path><path d="M740.608 153.6a80.896 80.896 0 0 0-25.6-63.488 145.92 145.92 0 0 0-96.256-46.08H395.52a142.336 142.336 0 0 0-94.208 45.056 80.896 80.896 0 0 0-25.6 61.952v133.632a44.032 44.032 0 0 0 5.632 14.336 30.208 30.208 0 0 0 23.04 16.384l113.152-22.528c16.384 0 54.784-3.584 92.672-3.584a741.376 741.376 0 0 1 86.528 1.536l92.672 16.384 23.04 4.608a34.304 34.304 0 0 0 28.672-33.28z" fill="#cdcdcd" p-id="11460"></path><path d="M987.392 999.936a476.16 476.16 0 0 0-358.4-393.216 273.92 273.92 0 0 0 153.6-246.272 287.744 287.744 0 0 0-5.632-56.32 138.752 138.752 0 0 0 5.12-22.016V153.088A120.32 120.32 0 0 0 750.336 59.392 193.536 193.536 0 0 0 618.752 0H395.52a186.88 186.88 0 0 0-126.976 58.368A120.832 120.832 0 0 0 231.68 153.6v133.12a72.192 72.192 0 0 0 11.776 34.816A277.504 277.504 0 0 0 238.336 358.4a273.92 273.92 0 0 0 272.896 273.408 436.224 436.224 0 0 1 429.568 348.16H84.736a428.032 428.032 0 0 1 197.12-283.136l21.504-12.288a20.992 20.992 0 0 0 8.704-28.16 20.992 20.992 0 0 0-28.672-8.704c-8.192 4.096-15.872 8.704-23.552 13.312a470.016 470.016 0 0 0-223.232 338.944L33.536 1024h956.928zM274.688 224.768V148.992a80.896 80.896 0 0 1 25.6-61.952A142.336 142.336 0 0 1 395.52 41.984h223.232a145.92 145.92 0 0 1 96.256 46.08 80.896 80.896 0 0 1 25.6 65.536v126.464a34.304 34.304 0 0 1-6.656 17.92 29.184 29.184 0 0 1-22.016 15.36L689.408 307.2 596.736 290.816a741.376 741.376 0 0 0-88.064-3.584c-37.888 0-76.288 0-92.672 3.584l-113.152 22.528A27.136 27.136 0 0 1 289.536 307.2a35.328 35.328 0 0 1-10.24-10.24 44.032 44.032 0 0 1-5.632-14.336z m237.056 366.592A231.424 231.424 0 0 1 280.32 358.4v-9.216a73.728 73.728 0 0 0 23.552 4.096l119.296-20.48a1188.864 1188.864 0 0 1 165.376 0l113.664 22.016h8.192a68.608 68.608 0 0 0 32.256-8.192 116.736 116.736 0 0 1 0 13.312 231.424 231.424 0 0 1-194.56 227.84 225.28 225.28 0 0 1-36.352 3.584z" fill="#cdcdcd" p-id="11461"></path><path d="M777.472 823.296h-43.008v-43.008a20.48 20.48 0 0 0-20.48-20.48 19.968 19.968 0 0 0-19.968 20.48v43.008H647.936a19.968 19.968 0 0 0-19.968 19.968 20.48 20.48 0 0 0 19.968 20.48h43.52v43.008a19.968 19.968 0 0 0 19.968 19.968 20.48 20.48 0 0 0 20.48-19.968v-43.008h43.008a19.968 19.968 0 0 0 19.968-20.48 19.456 19.456 0 0 0-17.408-19.968z" fill="#cdcdcd" p-id="11462"></path></svg>