<?xml version="1.0" encoding="utf-8"?>
<svg version="1.1" xmlns:xlink="http://www.w3.org/1999/xlink" width="47px" height="47px" xmlns="http://www.w3.org/2000/svg">
  <defs>
    <path d="M 0 0  L 1024 0  L 1024 1024  L 0 1024  Z " fill-rule="evenodd" fill="black" id="path71" />
    <clipPath id="clip72">
      <use xlink:href="#path71" />
    </clipPath>
    <filter x="-50.00%" y="-50.00%" width="200.00%" height="200.00%" filterUnits="objectBoundingBox" id="filter73">
      <feColorMatrix type="matrix" values="1 0 0 0 0  0 1 0 0 0  0 0 1 0 0  0 0 0 1 0  " in="SourceGraphic" />
    </filter>
    <filter x="684px" y="784px" width="47px" height="47px" filterUnits="userSpaceOnUse" id="filter74">
      <feOffset dx="0" dy="0" in="SourceAlpha" result="shadowOffsetInner" />
      <feGaussianBlur stdDeviation="2.5" in="shadowOffsetInner" result="shadowGaussian" />
      <feComposite in2="shadowGaussian" operator="atop" in="SourceAlpha" result="shadowComposite" />
      <feColorMatrix type="matrix" values="0 0 0 0 0  0 0 0 0 0  0 0 0 0 0  0 0 0 0.349019607843137 0  " in="shadowComposite" />
    </filter>
    <g id="widget75">
      <g transform="matrix(0.0361328125 0 0 0.0361328125 689 789 )" clip-path="url(#clip72)" filter="url(#filter73)">
        <path d="M512.1 65c-247 0-447.2 200.2-447.2 447.2s200.2 447.2 447.2 447.2 447.2-200.2 447.2-447.2S759.1 65 512.1 65zM344.2 354.5c0-53.6 86.4-80.8 168.9-80.8 41.3 0 81.9 9.4 110.9 20.5 52.9 20.6 54.7 40.8 54.7 61.4v75.9c0 0.3-0.1 0.6-0.1 1 0.1 1.4 0.1 2.9-0.2 4.3-1.5 7.6-8.1 12.9-15.5 12.9-0.9 0-1.9-0.1-2.9-0.3-113.9-21.9-296.5-0.1-298.3 0.2-8.7 1-16.4-5.2-17.5-13.9-0.2-1.4-0.1-2.7 0.1-4-0.1-0.4-0.2-0.9-0.2-1.3v-75.9z m379.2 395c-5 2.5-16.9 1.2-19.1-4.4-36.8-93.8-121.9-107.4-191.1-107.4-70.3 0-158 14.7-193.7 107.4-1.1 4.5-5.6 4-10.1 4-2.2 0-5.8-0.7-7.1-1.1-5.6-2.2-11.6-6.2-9.4-11.8 26.8-70.3 89.7-112.7 174.5-123.9-59.2-19-105.4-74.8-105.4-140.6 0-6.7 7.1-11.2 13.8-11.2 6.7 0 13.8 4.5 13.8 11.2 0 69.2 53.2 119.7 122.3 119.7 69.2 0 122.3-50.5 122.3-119.7 0-6.7 7.1-11.2 13.8-11.2 6.7 0 13.8 4.5 13.8 11.2 0 65.9-46.2 121.6-105.4 140.6 84.8 11.1 147.8 53.6 174.5 123.9 2.6 5.7-3.1 11.4-7.5 13.3z" fill="#1296db" p-id="11699"></path>
        <path d="M651.1 415.7v-60.1c0-35.7-69.9-53.1-138-53.1-71.4 0-141.3 18.5-141.3 53.1v60.9c43.5-4.5 178.9-16.5 279.3-0.8z m-169.9-75.8h14.5v-14.5c0-8.8 7.1-15.9 15.9-15.9s15.9 7.1 15.9 15.9v14.5h14.4c8.8 0 15.9 7.1 15.9 15.9s-7.1 15.9-15.9 15.9h-14.4v14.4c-0.1 8.8-7.1 16-15.9 16s-15.9-7.1-15.9-15.9v-14.5h-14.5c-8.8 0-15.9-7.1-15.9-15.9s7.1-15.9 15.9-15.9z" fill="#1296db" p-id="11700"></path>
      </g>
    </g>
  </defs>
  <g transform="matrix(1 0 0 1 -684 -784 )">
    <use xlink:href="#widget75" filter="url(#filter74)" />
    <use xlink:href="#widget75" />
  </g>
</svg>