<?xml version="1.0" encoding="utf-8"?>
<svg version="1.1" xmlns:xlink="http://www.w3.org/1999/xlink" width="45px" height="45px" xmlns="http://www.w3.org/2000/svg">
  <defs>
    <path d="M 0 0  L 1024 0  L 1024 1024  L 0 1024  Z " fill-rule="evenodd" fill="black" id="path30" />
    <clipPath id="clip31">
      <use xlink:href="#path30" />
    </clipPath>
    <filter x="-50.00%" y="-50.00%" width="200.00%" height="200.00%" filterUnits="objectBoundingBox" id="filter32">
      <feColorMatrix type="matrix" values="1 0 0 0 0  0 1 0 0 0  0 0 1 0 0  0 0 0 1 0  " in="SourceGraphic" />
    </filter>
    <filter x="1196px" y="785px" width="45px" height="45px" filterUnits="userSpaceOnUse" id="filter33">
      <feOffset dx="0" dy="0" in="SourceAlpha" result="shadowOffsetInner" />
      <feGaussianBlur stdDeviation="2.5" in="shadowOffsetInner" result="shadowGaussian" />
      <feComposite in2="shadowGaussian" operator="atop" in="SourceAlpha" result="shadowComposite" />
      <feColorMatrix type="matrix" values="0 0 0 0 0  0 0 0 0 0  0 0 0 0 0  0 0 0 0.349019607843137 0  " in="shadowComposite" />
    </filter>
    <g id="widget34">
      <g transform="matrix(0.0341796875 0 0 0.0341796875 1201 790 )" clip-path="url(#clip31)" filter="url(#filter32)">
        <path d="M512 512m-512 0a512 512 0 1 0 1024 0 512 512 0 1 0-1024 0Z" fill="#1296db" p-id="17221" data-spm-anchor-id="a313x.7781069.0.i24" class="selected"></path>
        <path d="M698.069333 355.669333c-2.944-16.768-14.570667-20.970667-19.413333-21.973333l-1.408-0.32h-7.893333a11.904 11.904 0 0 0-0.896-0.021333h-14.186667l-0.874667 0.021333h-0.810666v0.106667a11.776 11.776 0 0 0-10.090667 11.648v3.669333c0 5.930667 4.394667 10.837333 10.090667 11.648v0.128h18.752c0.213333 1.429333 0.256 3.328 0.085333 4.842667l-0.106667 0.768V651.52c-0.554667 8.192-3.328 14.357333-8.277333 18.346667-2.986667 2.346667-6.037333 3.413333-7.424 3.797333h-22.122667v-0.32c-8.789333-0.341333-14.122667-3.669333-17.237333-10.752-2.709333-6.186667-2.645333-12.8-2.624-13.482667V352.448c0.917333-16.512-3.157333-29.184-12.053333-37.632-10.24-9.706667-22.848-9.813333-26.688-9.578667H339.541333c-10.368 0.085333-19.221333 3.904-25.6 11.008-11.626667 12.928-10.944 32.426667-10.602666 37.013334v295.594666a55.893333 55.893333 0 0 0 4.693333 23.893334c7.466667 16.64 22.826667 26.581333 43.264 28.053333l0.490667 0.021333h306.346666l1.002667-0.149333c1.642667-0.234667 10.24-1.813333 19.2-8.341333 8.512-6.208 18.88-18.133333 20.138667-39.637334V367.957333a47.36 47.36 0 0 0-0.426667-12.288zM352.789333 673.642667c-6.442667-0.512-15.232-2.346667-19.626666-11.349334a28.586667 28.586667 0 0 1-2.666667-12.245333l0.021333-0.256V352.042667l-0.064-0.682667c-0.298667-3.072 0-12.842667 3.690667-16.938667 0.853333-0.981333 2.218667-1.962667 5.589333-2.005333H575.36l0.426667 0.106667 0.917333-0.149334c0.746667 0 4.074667 0.064 6.272 2.282667 2.730667 2.730667 3.989333 8.618667 3.52 16.618667l-0.021333 0.384v296.469333c-0.106667 2.773333-0.149333 14.016 4.949333 25.514667H352.789333z m204.352-298.602667c0 7.893333-6.4 14.293333-14.272 14.293333h-169.877333a14.272 14.272 0 1 1 0-28.544h169.877333c7.893333 0 14.272 6.378667 14.272 14.250667z" fill="#FFFFFF" p-id="17222"></path>
        <path d="M556.672 454.336c0 7.872-6.4 14.250667-14.293333 14.250667h-169.856a14.272 14.272 0 0 1 0-28.544h169.877333c7.893333 0 14.272 6.4 14.272 14.293333M556.672 531.882667c0 7.893333-6.4 14.272-14.293333 14.272h-169.856a14.272 14.272 0 1 1 0-28.544h169.877333c7.893333 0 14.272 6.4 14.272 14.293333M443.861333 609.834667c0 7.893333-6.378667 14.272-14.250666 14.272h-57.088a14.272 14.272 0 1 1 0-28.544h57.088c7.872 0 14.250667 6.4 14.250666 14.272z" fill="#FFFFFF" p-id="17223"></path>
      </g>
    </g>
  </defs>
  <g transform="matrix(1 0 0 1 -1196 -785 )">
    <use xlink:href="#widget34" filter="url(#filter33)" />
    <use xlink:href="#widget34" />
  </g>
</svg>