<svg t="1607067908789" class="icon" viewBox="0 0 1024 1024" version="1.1" xmlns="http://www.w3.org/2000/svg" p-id="18399" width="200" height="200"><path d="M511.295978 628.659646c-118.867715 0-215.558736-96.723023-215.558736-215.606738 0-118.867715 96.691022-215.590737 215.558736-215.590737 118.851714 0 215.574737 96.707022 215.574737 215.590737 0 118.883715-96.707022 215.606738-215.574737 215.606738z m0-394.332323c-98.54708 0-178.709585 80.178506-178.709585 178.741585 0 98.56308 80.162505 178.741586 178.709585 178.741586 98.56308 0 178.757586-80.178506 178.757586-178.741586 0.016001-98.56308-80.178506-178.741586-178.757586-178.741585z" fill="#cdcdcd" p-id="18400"></path><path d="M511.295978 1022.975968c-129.716054 0-253.639926-49.121535-348.954905-138.340323a18.496578 18.496578 0 0 1-5.328166-17.696553c38.305197-161.989062 184.00575-275.128598 354.283071-275.128598 170.293322 0 315.993875 113.139536 354.331073 275.128598 1.536048 6.416201-0.496016 13.168412-5.344167 17.696553-95.34698 89.218788-219.254852 138.340323-348.986906 138.340323z m-315.769868-157.940936c87.330729 78.178443 199.03022 121.059783 315.785868 121.059783 116.755649 0 228.48714-42.897341 315.83387-121.059783-38.001188-139.716366-166.341198-236.359386-315.83387-236.359386-149.460671-0.016001-277.784681 96.62702-315.785868 236.359386z" fill="#cdcdcd" p-id="18401"></path><path d="M511.295978 1022.975968c-281.92881 0-511.295978-229.383168-511.295978-511.34398 0-281.944811 229.367168-511.311978 511.295978-511.311978 281.960811 0 511.311978 229.367168 511.311978 511.311978 0 281.960811-229.351167 511.343979-511.311978 511.34398z m0-985.806806c-261.608175 0-474.430826 212.838651-474.430826 474.462826 0 261.656177 212.822651 474.462827 474.430826 474.462827 261.640176 0 474.462827-212.822651 474.462827-474.462827 0-261.624176-212.822651-474.462827-474.462827-474.462826z" fill="#cdcdcd" p-id="18402"></path></svg>