<svg t="1607056721304" class="icon" viewBox="0 0 1024 1024" version="1.1" xmlns="http://www.w3.org/2000/svg" p-id="2024" width="200" height="200"><path d="M281.212 64h624.485C935.688 64 960 88.402 960 118.504v381.528c0 30.102-24.312 54.504-54.303 54.504H281.212c-29.991 0-54.303-24.402-54.303-54.504V118.504c0-30.102 24.312-54.504 54.303-54.504z" fill="#D7F4E7" p-id="2025"></path><path d="M138.492 256.619C97.417 256.619 64 289.394 64 329.675v412.174c0 40.28 33.417 73.056 74.492 73.056h209.444l89.347 134.178a24.534 24.534 0 0 0 40.816 0l89.358-134.178H776.89c17.376 0 34.419-6.229 48.013-17.557 16.836-14.031 26.491-34.257 26.491-55.499V329.675c0-40.281-33.423-73.056-74.504-73.056H138.492z" fill="#49CF91" p-id="2026"></path><path d="M254.061 423.142h407.273c14.995 0 27.152 12.201 27.152 27.252s-12.156 27.252-27.152 27.252H254.061c-14.995 0-27.152-12.201-27.152-27.252s12.156-27.252 27.152-27.252zM254.061 586.654h407.273c14.995 0 27.152 12.201 27.152 27.252s-12.156 27.252-27.152 27.252H254.061c-14.995 0-27.152-12.201-27.152-27.252s12.156-27.252 27.152-27.252z" fill="#FFFFFF" p-id="2027"></path></svg>