<svg t="1607056837030" class="icon" viewBox="0 0 1024 1024" version="1.1" xmlns="http://www.w3.org/2000/svg" p-id="5029" width="200" height="200"><path d="M0 0h1024v1024H0z" opacity=".01" p-id="5030"></path><path d="M710.948571 184.32H877.714286c17.554286 0 32.182857 14.628571 32.182857 32.182857v175.542857H111.177143v-175.542857c0-17.554286 14.628571-32.182857 32.182857-32.182857h166.765714V119.954286c0-5.851429 2.925714-8.777143 8.777143-8.777143h55.588572c5.851429 0 8.777143 2.925714 8.777142 8.777143v64.365714h254.537143V119.954286c0-5.851429 2.925714-8.777143 8.777143-8.777143H702.171429c5.851429 0 8.777143 2.925714 8.777142 8.777143v64.365714zM143.36 912.822857c-17.554286 0-32.182857-14.628571-32.182857-32.182857V459.337143h798.72v421.302857c0 17.554286-14.628571 32.182857-32.182857 32.182857H143.36z" fill="#3AA0FF" opacity=".9" p-id="5031"></path><path d="M497.371429 734.354286l163.84-216.502857c2.925714-5.851429 0-11.702857-5.851429-11.702858h-55.588571c-5.851429 0-8.777143 2.925714-11.702858 5.851429l-102.4 137.508571-52.662857-70.217142c-2.925714-2.925714-8.777143-5.851429-11.702857-5.851429h-55.588571c-5.851429 0-11.702857 5.851429-5.851429 11.702857l114.102857 149.211429c5.851429 8.777143 17.554286 8.777143 23.405715 0z" fill="#FFFFFF" opacity=".9" p-id="5032"></path></svg>