<svg t="1607056914931" class="icon" viewBox="0 0 1098 1024" version="1.1" xmlns="http://www.w3.org/2000/svg" p-id="7391" width="200" height="200"><path d="M99.815677 0m115.514624 0l494.589767 0q115.514624 0 115.514625 115.514624l0 792.970752q0 115.514624-115.514625 115.514624l-494.589767 0q-115.514624 0-115.514624-115.514624l0-792.970752q0-115.514624 115.514624-115.514624Z" fill="#0091F1" p-id="7392"></path><path d="M1053.680997 283.748085l-230.041752-178.422627c0.302982 3.366465 0.516191 6.732929 0.516191 10.245274v652.387187l249.982444-322.159447a115.514624 115.514624 0 0 0-20.456883-162.050387z" fill="#FFB600" p-id="7393"></path><path d="M947.92912 283.748085l-123.740019-96.045237v443.96936l144.196903-185.873736a115.514624 115.514624 0 0 0-20.456884-162.050387z" fill="#FFD500" p-id="7394"></path><path d="M0 0m115.514624 0l494.589767 0q115.514624 0 115.514624 115.514624l0 792.970752q0 115.514624-115.514624 115.514624l-494.589767 0q-115.514624 0-115.514624-115.514624l0-792.970752q0-115.514624 115.514624-115.514624Z" fill="#00B1FF" p-id="7395"></path><path d="M142.581 333.313666m0-3.893877l0-91.163863q0-3.893877 3.893878-3.893878l432.66926 0q3.893877 0 3.893877 3.893878l0 91.163863q0 3.893877-3.893877 3.893877l-432.66926 0q-3.893877 0-3.893878-3.893877Z" fill="#FFFFFF" p-id="7396"></path><path d="M142.581 538.286478m0-3.893877l0-91.163863q0-3.893877 3.893878-3.893878l432.66926 0q3.893877 0 3.893877 3.893878l0 91.163863q0 3.893877-3.893877 3.893877l-432.66926 0q-3.893877 0-3.893878-3.893877Z" fill="#FFFFFF" p-id="7397"></path><path d="M142.581 738.905329m0-3.893877l0-91.163863q0-3.893877 3.893878-3.893878l432.66926 0q3.893877 0 3.893877 3.893878l0 91.163863q0 3.893877-3.893877 3.893877l-432.66926 0q-3.893877 0-3.893878-3.893877Z" fill="#FFFFFF" p-id="7398"></path></svg>