<svg t="1607056979520" class="icon" viewBox="0 0 1024 1024" version="1.1" xmlns="http://www.w3.org/2000/svg" p-id="9060" width="200" height="200"><path d="M996.438419 747.748479a55.458012 55.458012 0 0 0-38.841379-13.91643 175.305477 175.305477 0 0 0-87.652738 31.363894c-93.676268 58.573631-145.395538 88.275862-201.061258 88.48357a264.827586 264.827586 0 0 1-98.868965-23.470994c-54.627181-20.770791-89.314402-35.933469-110.708317-47.357403a101.36146 101.36146 0 0 1-22.84787-15.370386l-12.254767-12.462474 14.539554-20.770791 6.854361-2.07708a65.220284 65.220284 0 0 1 24.301826-3.531034 479.805274 479.805274 0 0 1 115.485598 25.755781c18.278296 5.608114 35.725761 10.800811 49.642191 14.124138a121.924544 121.924544 0 0 0 28.040568 3.323326c43.826369 0 77.267343-26.586613 77.682758-62.312373s-33.025558-62.312373-85.367951-75.190264c-28.248276-6.854361-52.342394-13.501014-74.151724-19.524543a538.171197 538.171197 0 0 0-148.303448-26.794321 432.655578 432.655578 0 0 0-59.819879 4.569574c-85.783367 12.670183-207.707911 76.644219-341.471805 179.875051a53.796349 53.796349 0 0 1-9.762272 6.854361l-8.516024 5.400406c-3.94645 62.312373 84.952535 195.86856 143.526166 213.523732a78.51359 78.51359 0 0 0 8.308317-3.738742l3.115618-1.246248a493.929412 493.929412 0 0 1 49.849899-13.501014 564.134686 564.134686 0 0 1 117.770385-13.501014 379.482353 379.482353 0 0 1 110.500609 23.88641 567.042596 567.042596 0 0 0 174.474645 33.856389c116.31643 0 199.81501-62.312373 266.904665-111.954564a668.611765 668.611765 0 0 1 59.61217-41.541582c39.672211-23.678702 62.312373-56.288844 62.312374-89.106694a47.565112 47.565112 0 0 0-13.293307-33.648681z" fill="#DB7D7D" p-id="9061"></path><path d="M432.303734 547.102637a413.338742 413.338742 0 0 1 87.44503 10.177688v-60.235295h-100.322921a27.417444 27.417444 0 1 1 0-54.834888h100.530629v-48.811359h-100.530629a27.417444 27.417444 0 1 1 0-54.834888h48.395944l-48.603652-100.322921a27.209736 27.209736 0 0 1 12.877891-36.764301 27.83286 27.83286 0 0 1 36.972008 12.877891l60.235294 124.624746h29.286816l60.235294-124.624746a28.248276 28.248276 0 0 1 37.179716-12.877891 27.417444 27.417444 0 0 1 12.87789 36.764301l-48.811359 100.322921h55.458012a27.417444 27.417444 0 1 1 0 54.834888h-100.322921v48.811359h100.322921a27.417444 27.417444 0 1 1 0 54.834888h-100.322921v69.374443a25.548073 25.548073 0 0 1 0 4.361866l17.032049 4.569574c20.770791 5.815822 45.280325 12.254767 72.905477 19.109128 71.659229 17.032049 116.731846 62.312373 117.147261 115.485598a97.41501 97.41501 0 0 1-34.271805 73.113185 415.415822 415.415822 0 1 0-562.057606-162.012171A572.443002 572.443002 0 0 1 366.460326 552.087627a473.158621 473.158621 0 0 1 65.843408-4.98499z" fill="#DB7D7D" p-id="9062"></path></svg>