<svg t="1606368638363" class="icon" viewBox="0 0 1077 1024" version="1.1" xmlns="http://www.w3.org/2000/svg" p-id="10731" width="200" height="200"><path d="M529.881458-2.748921m53.689651 4.697236l0 0q53.689651 4.697236 48.992415 58.386886l-79.853009 912.724069q-4.697236 53.689651-58.386887 48.992415l0 0q-53.689651-4.697236-48.992415-58.386886l79.853009-912.724069q4.697236-53.689651 58.386887-48.992415Z" fill="#00B885" p-id="10732"></path><path d="M79.226688 12.645043m107.379302 9.394472l751.655115 65.761301q107.379302 9.394472 97.984831 116.773774l-28.183415 322.137907q-9.394472 107.379302-116.773774 97.98483l-751.655115-65.761301q-107.379302-9.394472-97.984831-116.773774l28.183415-322.137907q9.394472-107.379302 116.773774-97.98483Z" fill="#00B885" p-id="10733"></path><path d="M177.211518 129.418817m53.689651 4.697236l644.275813 56.36683q53.689651 4.697236 48.992416 58.386887l-18.788944 214.758604q-4.697236 53.689651-58.386886 48.992415l-644.275814-56.36683q-53.689651-4.697236-48.992415-58.386886l18.788943-214.758605q4.697236-53.689651 58.386887-48.992415Z" fill="#CDF4E9" p-id="10734"></path></svg>