<svg t="1607065708827" class="icon" viewBox="0 0 1170 1024" version="1.1" xmlns="http://www.w3.org/2000/svg" p-id="8869" width="200" height="200"><path d="M39.3216 377.007543L340.260571 17.671314h487.131429l300.938971 359.336229-544.475428 602.112z" fill="#FFF37F" p-id="8870"></path><path d="M821.248 30.778514l289.674971 345.9072-527.125942 582.8608L56.700343 376.685714l289.645714-345.9072h474.9312z m12.258743-26.2144H334.116571L21.942857 377.358629l561.883429 621.275428 561.854171-621.275428L833.506743 4.564114z" fill="#F98821" p-id="8871"></path><path d="M912.003657 464.720457h-10.620343c-15.945143 0-14.862629 3.042743-22.528 12.141714-55.764114 74.049829-278.147657 366.416457-278.147657 366.416458-0.146286-0.351086-0.2048-0.848457-0.351086-1.258058v1.258058s-222.646857-292.278857-278.293942-366.416458c-7.7824-9.157486-6.582857-12.141714-22.645029-12.141714h-10.708114c-6.202514 0-11.176229-5.412571-11.176229-12.112457v-60.416c0-6.729143 5.061486-12.141714 11.176229-12.141714h111.352685c6.114743 0 14.891886 0.848457 22.235429 12.141714l178.176 245.408914v0.877715c0.087771-0.263314 0.175543-0.702171 0.292571-0.8192l177.883429-245.5552c7.314286-11.205486 16.208457-12.141714 22.3232-12.141715h111.2064c6.085486 0 11.0592 5.441829 10.942171 12.229486v60.416c0 6.641371-4.973714 12.112457-11.117714 12.112457z" fill="#F98821" p-id="8872"></path></svg>