<svg t="1600051134362" class="icon" viewBox="0 0 1024 1024" version="1.1" xmlns="http://www.w3.org/2000/svg" p-id="13283" width="200" height="200"><path d="M0 512a512 512 0 1 0 1024 0A512 512 0 1 0 0 512z" fill="#89D8DB" p-id="13284"></path><path d="M430.08 720.896h163.84c110.848 0 200.704 98.304 200.704 200.704 0 1.124 0.679 15.026 0 16.061-4.007 6.166-54.317 37.588-118.717 59.626-57.21 19.59-122.847 26.713-173.79 26.713-49.476 0-131.218-14.069-189.942-40.047-27.225-12.043-46.903-21.66-64.779-32.946-14.647-9.25-21.047-12.333-21.047-17.108 0-102.4 92.883-213.003 203.731-213.003z" fill="#FCE496" p-id="13285"></path><path d="M425.984 720.896h172.032s-20.001 163.84-81.92 163.84-90.112-163.84-90.112-163.84z" fill="#FCFCFC" p-id="13286"></path><path d="M458.752 638.976h106.496l16.384 90.112H442.368z" fill="#FFE2C2" p-id="13287"></path><path d="M512 704.512c38.456 0 69.632 10.997 69.632 24.576 0 13.58-31.176 24.576-69.632 24.576s-69.632-10.997-69.632-24.576c0-13.58 31.176-24.576 69.632-24.576z" fill="#FFE2C2" p-id="13288"></path><path d="M508.182 215.953c211.645 0 232.971 108.51 232.971 242.354S594.877 700.66 508.183 700.66c-103.202 0-232.972-108.5-232.972-242.343s33.837-242.354 232.971-242.354z" fill="#FFEDDA" p-id="13289"></path><path d="M754.554 392.604c-0.857 20.736-5.053 36.908-12.21 49.62-1.402-18.755-5.698-35.306-12.978-49.587-29.896-58.746-107.186-81.341-213.27-81.341-100.73 0-161.169 29.128-196.608 81.92-11.91 17.753-34.549 32.568-38.333 56.743-12.51-13.646-19.568-32.156-19.568-57.355 0-105.817 67.05-246.517 181.76-252.739 15.104-0.812 38.946 15.349 54.829 15.894 128.746 4.375 264.426 42.574 256.378 236.845z" fill="#674C53" p-id="13290"></path></svg>