<?xml version="1.0" encoding="utf-8"?>
<svg version="1.1" xmlns:xlink="http://www.w3.org/1999/xlink" width="30px" height="30px" xmlns="http://www.w3.org/2000/svg">
  <g transform="matrix(1 0 0 1 -92 -666 )">
    <path d="M 107 666  C 115.4 666  122 672.6  122 681  C 122 689.4  115.4 696  107 696  C 98.6 696  92 689.4  92 681  C 92 672.6  98.6 666  107 666  Z " fill-rule="nonzero" fill="#ffffff" stroke="none" />
    <path d="M 107 666.5  C 115.12 666.5  121.5 672.88  121.5 681  C 121.5 689.12  115.12 695.5  107 695.5  C 98.88 695.5  92.5 689.12  92.5 681  C 92.5 672.88  98.88 666.5  107 666.5  Z " stroke-width="1" stroke="#cccccc" fill="none" />
  </g>
</svg>