<?xml version="1.0" encoding="utf-8"?>
<svg version="1.1" xmlns:xlink="http://www.w3.org/1999/xlink" width="30px" height="30px" xmlns="http://www.w3.org/2000/svg">
  <g transform="matrix(1 0 0 1 -51 -673 )">
    <path d="M 66 673  C 74.4 673  81 679.6  81 688  C 81 696.4  74.4 703  66 703  C 57.6 703  51 696.4  51 688  C 51 679.6  57.6 673  66 673  Z " fill-rule="nonzero" fill="#ffffff" stroke="none" />
    <path d="M 66 673.5  C 74.12 673.5  80.5 679.88  80.5 688  C 80.5 696.12  74.12 702.5  66 702.5  C 57.88 702.5  51.5 696.12  51.5 688  C 51.5 679.88  57.88 673.5  66 673.5  Z " stroke-width="1" stroke="#cccccc" fill="none" />
  </g>
</svg>