<svg t="1600071530225" class="icon" viewBox="0 0 1026 1024" version="1.1" xmlns="http://www.w3.org/2000/svg" p-id="58972" width="200" height="200"><path d="M509.6 409.6c-73.6 0-132.8 59.2-132.8 132.8s59.2 133.6 132.8 133.6S642.4 616.8 642.4 543.2s-59.2-133.6-132.8-133.6z" fill="#59ADFA" p-id="58973"></path><path d="M1026.4 808.8V264c0-33.6-28.8-62.4-62.4-62.4H770.4v-2.4l-25.6-48.8c-2.4-4.8-28.8-59.2-62.4-59.2H346.4c-36 0-62.4 56.8-62.4 59.2L258.4 199.2v2.4H64.8c-36 0-64.8 28.8-64.8 62.4v609.6c0 33.6 28.8 62.4 64.8 62.4h896.8c36 0 62.4-28.8 62.4-62.4v-62.4l2.4-2.4z m-516.8-2.4c-146.4 0-266.4-117.6-266.4-263.2s119.2-264 266.4-264 266.4 117.6 266.4 263.2-116.8 264-266.4 264z m333.6-421.6c-28.8 0-52-23.2-52-52s23.2-52 52-52 52 23.2 52 52c-3.2 28.8-24 52-52 52z" fill="#59ADFA" p-id="58974"></path></svg>