<svg t="1602575331711" class="icon" viewBox="0 0 1024 1024" version="1.1" xmlns="http://www.w3.org/2000/svg" p-id="2096" width="200" height="200"><path d="M512.483556 2.133333c280.832 0 508.472889 227.640889 508.472888 508.472889 0 280.832-227.640889 508.501333-508.472888 508.501334C231.651556 1019.107556 3.982222 791.438222 3.982222 510.577778S231.651556 2.133333 512.483556 2.133333z" fill="#FFA07A" p-id="2097"></path><path d="M750.364444 323.299556l10.296889 495.217777-209.095111-61.240889-12.003555-85.418666 210.801777-348.558222z m-450.759111 0l-17.123555 456.192 217.656889-22.186667-8.561778-87.153778-191.971556-346.851555z" fill="#312B28" p-id="2098"></path><path d="M513.052444 893.696c102.912 0 197.603556-34.872889 273.180445-93.326222-10.325333-13.937778-28.472889-31.943111-59.761778-47.217778-46.990222-22.926222-101.205333-23.552-101.205333-23.552l-116.423111 34.56-89.258667-35.555556s-60.871111 3.84-104.448 29.411556a270.933333 270.933333 0 0 0-62.862222 51.598222 444.728889 444.728889 0 0 0 260.778666 84.081778z" fill="#F7F9FB" p-id="2099"></path><path d="M471.011556 653.084444h97.678222v66.616889l109.681778 17.066667s-69.632 46.136889-161.080889 46.136889c-79.246222 0-142.279111-47.843556-142.279111-47.843556l96-17.066666v-64.938667z" fill="#EFD0AF" p-id="2100"></path><path d="M323.612444 272.042667l-3.413333 97.393777s4.949333 78.648889 15.416889 129.848889c7.452444 36.494222 21.048889 66.019556 46.250667 99.100445 36.608 47.985778 103.708444 83.626667 137.102222 83.712 35.185778 0.085333 92.416-30.549333 128.568889-73.472 21.902222-25.998222 54.442667-70.542222 59.989333-104.220445 11.463111-69.774222 18.858667-184.519111 18.858667-184.519111l-65.137778-87.153778-337.635556 39.310223z" fill="#F4DBBA" p-id="2101"></path><path d="M510.435556 123.392c-176.412444 0-210.830222 147.712-210.830223 194.787556 0 72.931556-6.826667 174.279111-6.826666 174.279111s17.806222-69.489778 18.830222-64.938667c2.702222 12.088889 2.986667 41.159111 3.413333 41.016889 2.929778-0.967111 29.155556 13.653333 29.155556 13.653333l-1.706667-111.047111s51.370667 1.877333 94.264889-18.773333c36.266667-17.521778 41.130667-85.447111 41.130667-85.447111s22.129778 78.364444 73.671111 90.538666c51.569778 12.174222 135.793778-12.515556 143.985778 23.921778 11.576889 51.456 4.977778 74.496 1.848888 107.804445-0.056889 0.568889 22.158222-12.117333 22.158223-12.117334s3.754667-30.606222 5.12-41.016889c2.446222-18.403556 12.003556 46.677333 12.003555 46.136889 0.483556-14.677333 13.710222-82.062222 13.710222-157.184 0-97.450667-85.105778-201.614222-239.928888-201.614222z" fill="#312B28" p-id="2102"></path><path d="M332.174222 429.226667c0.142222-0.028444-8.049778-21.475556-25.713778-10.24-9.984 6.371556-10.837333 35.783111-6.826666 51.256889 5.063111 19.655111 14.108444 26.737778 22.272 32.455111 6.656 4.266667 17.123556 3.697778 17.123555 3.413333l-6.826666-76.885333z m383.744-14.990223c-0.113778-0.056889 8.305778-2.076444 18.602667 3.413334 10.353778 5.575111 10.695111 36.010667 6.769778 51.569778-5.006222 19.768889-13.937778 26.851556-21.987556 32.625777-6.570667 4.266667-18.631111 4.551111-18.631111 4.266667l15.246222-91.875556z" fill="#F4DBBA" p-id="2103"></path><path d="M519.196444 604.871111h-0.056888a63.715556 63.715556 0 0 1-42.894223-16.497778 4.608 4.608 0 0 1-0.284444-6.542222 4.693333 4.693333 0 0 1 6.542222-0.312889c20.224 18.147556 53.333333 18.119111 73.443556-0.142222a4.636444 4.636444 0 0 1 6.570666 0.341333 4.636444 4.636444 0 0 1-0.284444 6.570667 64 64 0 0 1-43.036445 16.583111z" fill="#E2C6A3" p-id="2104"></path></svg>