<svg t="1607071161122" class="icon" viewBox="0 0 1024 1024" version="1.1" xmlns="http://www.w3.org/2000/svg" p-id="12137" width="200" height="200"><path d="M512 512m-512 0a512 512 0 1 0 1024 0 512 512 0 1 0-1024 0Z" fill="#1296db" p-id="12138" data-spm-anchor-id="a313x.7781069.0.i30" class="selected"></path><path d="M729.109672 682.087196V640.546587a82.393318 82.393318 0 0 0-164.786636 0v90.888079a15.133793 15.133793 0 0 0-0.383944 3.33818 51.875102 51.875102 0 0 1-103.750203 0V588.287541a38.255754 38.255754 0 0 0 38.149103-38.149103v-9.5986c14.611203-1.322474 35.47216-6.495053 50.733935-23.633887 24.41244-26.662778 73.589268-128.162643 73.589268-191.865353 0-60.791135-23.537901-76.500844-50.211344-79.743037a53.378882 53.378882 0 1 0-0.234632 30.640865c11.731622 2.452976 19.933093 11.99825 19.933093 49.059512 0 57.218322-46.542546 150.666028-65.611765 171.271023-8.084154 8.894703-19.389172 12.222218-28.219885 13.374049v-9.18266a38.255754 38.255754 0 0 0-38.149103-38.149104h-30.491553a38.255754 38.255754 0 0 0-38.191764 38.24509v9.310642c-9.001354-1.066511-20.690316-4.330035-28.987773-13.459371-19.069219-20.263712-65.6011-114.052701-65.6011-170.887079 0-38.138438 8.446768-47.161122 20.754307-49.294144a53.421543 53.421543 0 1 0-0.394609-30.512884c-26.726769 3.092882-50.883246 18.578624-50.883246 79.817693 0 63.70271 49.208824 165.170579 73.589268 191.865353 15.997667 16.957527 36.933281 22.023455 51.491158 23.281938v9.523945a38.255754 38.255754 0 0 0 38.149103 38.149103v146.410649a82.537297 82.537297 0 0 0 82.387985 82.387985c44.654821 0 80.93753-35.194867 82.334659-79.071136a16.242965 16.242965 0 0 0 0.43727-3.700793v-94.215594a51.875102 51.875102 0 0 1 103.750203 0v42.159185a43.417668 43.417668 0 1 0 30.512884-0.234632zM521.225321 283.137376a22.887329 22.887329 0 1 1 22.706022-25.596267 14.152603 14.152603 0 0 0 0.063991 5.076593 22.961985 22.961985 0 0 1-22.770013 20.519674z m-152.585748-45.774658a22.887329 22.887329 0 1 1-22.887329 22.887329 22.95132 22.95132 0 0 1 22.887329-22.887329z m53.400213 312.786385v-49.592767a7.646885 7.646885 0 0 1 7.625554-7.625555h30.512884a7.646885 7.646885 0 0 1 7.625555 7.625555v21.042264a15.528402 15.528402 0 0 0-0.383944 1.85573 16.29629 16.29629 0 0 0 0.383944 5.225904v21.468869a7.646885 7.646885 0 0 1-7.625555 7.625555h-30.502218a7.65755 7.65755 0 0 1-7.625555-7.625555z" fill="#FFFFFF" p-id="12139"></path></svg>