<svg t="1607332399252" class="icon" viewBox="0 0 1134 1024" version="1.1" xmlns="http://www.w3.org/2000/svg" p-id="2053" width="200" height="200"><path d="M567.351351 643.459459a159.135135 159.135135 0 1 0 318.270271 0 159.135135 159.135135 0 0 0-318.270271 0z" fill="#d4237a" fill-opacity=".743" p-id="2054"></path><path d="M1134.702703 343.801081C1134.702703 154.112 986.762378 0 803.314162 0c-90.236541 0-174.564324 38.524541-236.696216 105.209081C504.486054 38.524541 420.144432 0 329.894054 0 147.926486 0 0 154.112 0 343.801081c0 5.936432 0 11.859027 1.480649 16.300973v4.441946c0 34.096432 7.389405 71.126486 23.662702 109.664865 0 1.480649 1.480649 2.961297 1.480649 4.441946 100.601081 241.553297 488.198919 520.164324 505.966703 533.490162 10.350703 7.417081 22.182054 11.859027 34.027243 11.859027 11.831351 0 25.143351-4.441946 35.494054-11.859027 8.883892-5.922595 121.316324-88.908108 241.152-200.053622-34.041081 22.223568-73.977081 35.563243-116.874378 35.563244-115.407568 0-208.591568-93.363892-208.591568-208.951352s93.197838-208.951351 208.591568-208.951351c115.39373 0 208.591568 93.363892 208.591567 208.951351 0 47.42227-16.273297 90.402595-41.416648 124.485189 71.001946-71.126486 139.07027-149.670054 184.915027-226.732973 4.441946-7.403243 8.883892-14.806486 11.845189-20.756756 1.480649-1.466811 1.480649-4.428108 2.961297-5.922595v-1.480649c0-1.480649 1.466811-1.480649 1.466811-2.961297 7.403243-14.806486 14.806486-29.640649 19.234594-42.980324 13.312-35.563243 20.715243-68.165189 20.715244-97.805838v-20.729081zM318.076541 179.310703c-4.441946 0-125.75827 14.806486-142.031568 137.824865-1.480649 13.325838-13.312 22.223568-25.143351 22.223567h-2.961298c-14.806486-1.480649-23.662703-14.820324-22.195892-29.640649C143.498378 177.830054 255.930811 133.369081 313.634595 127.446486c14.792649-1.480649 26.624 8.883892 28.104648 23.704217 1.480649 13.339676-8.870054 26.679351-23.662702 28.16z m687.920432 772.082162a27.260541 27.260541 0 0 1-17.753946-7.417081l-137.589622-136.330379 36.988541-37.057729 136.108973 136.344216c10.350703 10.378378 10.350703 26.665514 0 37.043892a27.260541 27.260541 0 0 1-17.753946 7.417081z" fill="#d4237a" fill-opacity=".743" p-id="2055"></path></svg>