<svg t="1607332572108" class="icon" viewBox="0 0 1152 1024" version="1.1" xmlns="http://www.w3.org/2000/svg" p-id="3340" width="200" height="200"><path d="M860.672 857.088c0 24.064-19.456 43.52-43.52 43.52h-105.984l-19.456 64.512h124.416c59.904 0 107.008-48.128 107.008-107.008v-152.064l-64.512 61.44 2.048 89.6z m-637.44 0v-471.04l200.192-200.192c11.776-11.776 11.776-30.72 0-43.52l-1.024-1.024-44.032-40.448h439.808c24.064 0 43.52 19.456 43.52 43.52V414.72l64.512-61.44V143.36c0-59.904-48.128-107.008-107.008-107.008H309.76l-0.512-0.512v1.024H307.2L161.792 372.736v484.352c0 59.904 48.128 107.008 107.008 107.008h130.048l19.456-64.512h-148.48c-27.136-0.512-46.592-19.456-46.592-42.496z" fill="#d4237a" p-id="3341"></path><path d="M798.72 343.04c0-17.408-14.336-31.744-31.744-31.744H366.592c-17.408 0-31.744 14.336-31.744 31.744 0 17.408 14.336 31.744 31.744 31.744h400.384c17.408 0 31.744-14.336 31.744-31.744z m-65.024 138.24c0-17.408-14.336-31.744-31.744-31.744H366.592c-17.408 0-31.744 14.336-31.744 31.744s14.336 31.744 31.744 31.744H701.44c17.408 0 32.256-14.336 32.256-31.744z m-367.104 107.008c-17.408 0-31.744 14.336-31.744 31.744 0 17.408 14.336 31.744 31.744 31.744h236.032c17.408 0 31.744-14.336 31.744-31.744 0-17.408-14.336-31.744-31.744-31.744H366.592z" fill="#d4237a" p-id="3342"></path><path d="M990.72 499.712l-47.104-46.08c-5.632-4.608-11.776-8.704-18.432-11.776-6.656-3.072-13.312-4.096-20.992-4.096s-14.336 2.048-20.992 4.096c-6.656 3.072-12.288 6.656-18.432 11.776l-299.52 293.376 124.928 124.928 300.544-294.4c22.016-20.992 22.016-55.808 0-77.824 0.512 1.024 0.512 1.024 0 0z m-508.416 328.192l-44.032 148.48L430.08 998.4l180.736-48.128 45.056-44.032-124.928-124.928-48.64 46.592z" fill="#d4237a" p-id="3343"></path></svg>