<svg t="1607332770626" class="icon" viewBox="0 0 1024 1024" version="1.1" xmlns="http://www.w3.org/2000/svg" p-id="8240" width="200" height="200"><path d="M722.65728 430.8992c0 17.57184 11.71456 29.73696 29.73696 29.73696s29.73696-11.71456 29.73696-29.73696a179.11808 179.11808 0 0 0-178.42176-178.42176c-18.0224 0-29.73696 11.71456-29.73696 29.73696s11.71456 29.73696 29.73696 29.73696c65.78176 0.45056 118.94784 53.61664 118.94784 118.94784z" fill="#d4237a" p-id="8241"></path><path d="M841.60512 430.8992c0 17.57184 11.71456 29.73696 29.73696 29.73696s29.73696-11.71456 29.73696-29.73696c0-163.55328-133.81632-296.91904-296.91904-296.91904-18.0224 0-29.73696 11.71456-29.73696 29.73696s11.71456 29.73696 29.73696 29.73696c130.6624 0 237.44512 106.78272 237.44512 237.44512z m-519.94624-29.73696c6.7584 41.90208 43.25376 200.4992 212.66432 278.44608 7.65952 3.60448 16.22016 2.70336 22.97856-2.2528 23.87968-17.12128 79.29856-56.77056 90.56256-64.88064 17.12128-12.61568 48.20992-24.33024 73.89184 0.45056l135.168 126.60736s19.82464 32.44032 5.85728 50.01216c-39.19872 47.3088-127.95904 145.98144-127.95904 145.98144s-16.67072 20.2752-50.01216 8.56064c-54.0672-19.37408-237.44512-112.64-384.77824-287.45728-144.1792-171.2128-182.4768-318.54592-210.41152-421.72416-9.46176-33.792-4.05504-64.43008 21.62688-76.14464 33.34144-15.31904 177.07008-82.45248 177.07008-82.45248s33.34144-9.0112 47.75936 16.67072 95.06816 136.51968 104.98048 154.09152c11.71456 20.2752 4.5056 37.39648-5.85728 46.40768-12.61568 10.81344-83.80416 70.73792-107.68384 90.56256a18.57536 18.57536 0 0 0-5.85728 17.12128z" fill="#d4237a" p-id="8242"></path></svg>