<svg t="1607332756355" class="icon" viewBox="0 0 1024 1024" version="1.1" xmlns="http://www.w3.org/2000/svg" p-id="7379" width="200" height="200"><path d="M493.568 851.2l16 15.232 15.808-15.36c11.776-11.52 288.576-285.184 288.576-540.16C813.952 139.52 677.312 0 509.376 0 341.44 0 204.8 139.52 204.8 310.976 204.8 572.736 481.792 840 493.568 851.2z m15.808-803.968c142.4 0 258.304 118.336 258.304 263.68 0 201.472-200.064 427.84-258.496 489.664-58.624-60.672-258.112-282.56-258.112-489.6 0-145.408 115.84-263.68 258.304-263.68z" fill="#d4237a" p-id="7380"></path><path d="M737.856 717.632a23.36 23.36 0 0 0-26.24 20.096 23.552 23.552 0 0 0 19.712 26.688C910.72 790.144 977.6 838.656 977.6 863.168c0 46.336-181.376 113.664-465.6 113.664-284.224 0-465.6-67.328-465.6-113.664 0-24.32 66.24-72.512 243.84-98.432a23.552 23.552 0 0 0 19.712-26.752 23.36 23.36 0 0 0-26.24-19.968C198.4 730.432 0 769.472 0 863.168 0 968.768 257.6 1024 512 1024c254.4 0 512-55.232 512-160.832 0-94.208-200.128-133.12-286.144-145.536z m-78.016-422.08c0-82.048-66.56-148.48-148.8-148.48a148.672 148.672 0 0 0-148.8 148.48c0 81.984 66.624 148.48 148.8 148.48a148.672 148.672 0 0 0 148.8-148.48z m-148.8 102.784c-56.896 0-103.04-46.08-103.04-102.784 0-56.768 46.144-102.848 103.04-102.848a102.912 102.912 0 0 1 0 205.632z" fill="#d4237a" p-id="7381"></path></svg>