<svg t="1607334328836" class="icon" viewBox="0 0 1024 1024" version="1.1" xmlns="http://www.w3.org/2000/svg" p-id="12961" width="200" height="200"><path d="M940.651163 121.117767l-45.032186 45.008373-49.461582 49.461581-75.776 75.776A438.891163 438.891163 0 0 1 881.116279 583.44186C881.116279 826.749023 683.865302 1024 440.55814 1024S0 826.749023 0 583.44186 197.250977 142.883721 440.55814 142.883721c106.091163 0 203.418791 37.506977 279.456744 99.970977l76.68093-76.704745L846.181209 116.688372l45.246512-45.246512h-188.939907A35.60186 35.60186 0 0 1 666.790698 35.72093c0-19.717953 16.074419-35.72093 35.673302-35.72093h262.048744c12.954791 0 24.290233 6.858419 30.553303 17.193674a35.72093 35.72093 0 0 1 17.026976 30.386605v262.048744c0 19.69414-15.860093 35.673302-35.72093 35.673303-19.717953 0-35.72093-16.074419-35.72093-35.673303V121.117767zM440.55814 952.55814C644.405581 952.55814 809.674419 787.289302 809.674419 583.44186 809.674419 379.594419 644.405581 214.325581 440.55814 214.325581 236.710698 214.325581 71.44186 379.594419 71.44186 583.44186 71.44186 787.289302 236.710698 952.55814 440.55814 952.55814z" fill="#1296db" p-id="12962"></path><path d="M292.459163 748.30586c25.504744 25.504744 58.463256 32.672744 83.396465 32.672745 9.09693 0 17.122233-0.952558 23.337674-2.309954a34.768372 34.768372 0 0 0 26.528745-41.174325 35.197023 35.197023 0 0 0-41.102884-27.219349c-0.23814 0.047628-26.433488 4.834233-42.698419-11.430698-15.836279-15.836279-11.335442-40.007442-11.002046-41.674419a34.958884 34.958884 0 0 0-68.203163-15.526697c-5.405767 23.170977-5.23907 71.68 29.767442 106.686511z" fill="#1296db" p-id="12963"></path><path d="M338.205767 415.98214a56.153302 56.153302 0 1 0 112.306605 0 56.153302 56.153302 0 1 0-112.306605 0Z" fill="#1296db" p-id="12964"></path><path d="M562.795163 640.571535a56.153302 56.153302 0 1 0 112.306604 0 56.153302 56.153302 0 1 0-112.306604 0Z" fill="#1296db" p-id="12965"></path></svg>