<svg t="1607334398503" class="icon" viewBox="0 0 1194 1024" version="1.1" xmlns="http://www.w3.org/2000/svg" p-id="15443" width="200" height="200"><path d="M1164.842667 342.698667a91.008 91.008 0 0 0-68.266667-30.933334h-173.824L1006.933333 227.328a113.792 113.792 0 0 0-160.853333-160.853333l-246.912 245.290666H96.725333A91.008 91.008 0 0 0 5.674667 414.848C27.093333 580.266667 122.88 798.037333 324.266667 886.784c-1.493333 25.642667 7.552 50.773333 25.045333 69.632 33.664 34.346667 103.509333 48.213333 241.408 48.213333 220.074667 0 269.226667-35.712 276.053333-115.328 203.178667-87.637333 299.434667-307.882667 320.384-474.709333a91.008 91.008 0 0 0-22.314666-71.893333z m-271.701334-228.010667a45.525333 45.525333 0 0 1 64.170667 64.64l-130.816 132.437333h-130.645333l197.290666-197.077333z m-72.362666 719.061333a33.706667 33.706667 0 0 0-22.741334 30.976v6.826667c0 36.181333-1.365333 64.853333-208.64 64.853333-136.533333 0-180.48-15.018667-192.981333-27.776-3.882667-5.248-3.882667-13.653333-3.882667-32.554666v-12.032a34.346667 34.346667 0 0 0-22.741333-31.872C182.272 760.704 93.013333 557.525333 73.941333 406.186667a22.741333 22.741333 0 0 1 22.784-26.154667h999.637334a24.32 24.32 0 0 1 17.493333 7.722667 22.741333 22.741333 0 0 1 5.717333 18.432c-19.114667 153.386667-108.8 357.248-298.112 427.562666h-0.682666z" fill="#1296db" p-id="15444"></path><path d="M362.965333 744.106667a31.872 31.872 0 0 1-12.757333-2.517334c-127.872-50.944-177.28-219.818667-179.328-227.541333a34.133333 34.133333 0 0 1 65.536-18.645333c0 1.365333 42.581333 143.786667 139.264 182.016a34.133333 34.133333 0 0 1-12.714667 65.792v0.896z" fill="#1296db" opacity=".6" p-id="15445"></path></svg>