<svg t="1607334280039" class="icon" viewBox="0 0 1024 1024" version="1.1" xmlns="http://www.w3.org/2000/svg" p-id="10244" width="200" height="200"><path d="M512.3 64.2c-246.2 0-447 199.8-447 447 0 246.2 200.8 447 447 447 247.2 0 447-200.8 447-447 0-247.2-199.8-447-447-447z m0 857.1c-226.3 0-410.1-183.7-410.1-410.1s183.8-410 410.1-410 410.1 183.7 410.1 410.1c0.9 226.3-182.8 410-410.1 410z" fill="#1296db" p-id="10245"></path><path d="M778.7 344.6c-4.2-5.2-14-17.4-99.2-29.4-46.3-6.5-98.2-10.3-132.2-9.7-9.9 0.2-17.7 8.3-17.5 18.2 0.2 9.9 8.1 17.7 18.2 17.5 69.3-1.2 185.5 15.4 203.4 26.5 7.9 14.1-25.1 81.1-76.8 131.8-35.7 35.1-66.2 49.2-93.3 43.3-9.7-2.1-19.1 4-21.2 13.6-2.1 9.6 4 19.1 13.6 21.2 6.6 1.4 13.3 2.2 20 2.2 33.6 0 68.4-18.1 105.9-54.9 39.2-38.5 113.6-137.3 79.1-180.3zM525.8 569.2c-9.3-3.3-19.5 1.6-22.8 10.9-11.5 32.9-38.5 50.7-64.7 68-5.7 3.8-11.3 7.5-16.6 11.2-6.4 4.5-12.6 9-18.6 13.5-16.2 11.8-37.9 27.6-47.6 30.9-2.7-6.4-4.5-23.3-6-37.1-3.4-31.8-8.1-75.3-27.3-126.3-20.5-54.4-12.1-120.2 20.1-156.5 23.7-26.8 74.2-41.6 138-40.8h0.2c9.8 0 17.7-7.8 17.8-17.6 0.1-9.9-7.8-18-17.6-18.1-43.6-0.6-123.2 5.5-165.2 52.8-41.1 46.3-52.1 125.6-26.8 192.8 17.6 46.7 22 87.6 25.2 117.5 3.7 34.4 6.6 61.6 31.2 68.6 2.6 0.7 5.2 1.1 8 1.1 18.3 0 40-15.8 70.9-38.3 5.9-4.3 12.1-8.8 18.3-13.2 5-3.5 10.2-7 15.6-10.6 28.1-18.6 63.1-41.7 78.7-86 3.4-9.4-1.5-19.5-10.8-22.8z" fill="#1296db" p-id="10246"></path><path d="M368.5 485.5c-6.2 0-10.9-4.7-11.7-10.9-1.6-21.1 3.9-38.2 16.4-51.5 21.8-23.4 56.1-23.4 57.7-23.4 6.2 0 11.7 5.5 11.7 11.7 0 6.2-5.5 11.7-11.7 11.7 0 0-25.7 0.8-40.6 15.6-7.8 8.6-10.9 19.5-10.1 34.3 0 6.3-4.7 11.8-11.7 12.5 0.8 0 0 0 0 0z" fill="#1296db" p-id="10247"></path></svg>