<svg t="1607334298003" class="icon" viewBox="0 0 1024 1024" version="1.1" xmlns="http://www.w3.org/2000/svg" p-id="11178" width="200" height="200"><path d="M236.868267 978.141867c-99.054933-2.6624-177.339733-84.718933-175.189334-183.637334C59.392 695.5008 137.728 613.290667 236.868267 610.645333c99.140267 2.645333 177.4592 84.855467 175.189333 183.8592 2.1504 98.9184-76.151467 180.974933-175.189333 183.637334z m0-287.0272a100.932267 100.932267 0 0 0-98.269867 103.099733 100.932267 100.932267 0 0 0 98.269867 103.099733 100.932267 100.932267 0 0 0 98.2528-103.082666 100.932267 100.932267 0 0 0-98.2528-103.1168z" fill="#1296db" p-id="11179"></path><path d="M307.7632 691.063467c-8.328533 0-16.401067-2.816-22.9376-7.970134a41.642667 41.642667 0 0 1-7.9872-56.4736L676.078933 33.672533a37.256533 37.256533 0 0 1 53.8112-8.362666 41.642667 41.642667 0 0 1 7.970134 56.490666l-399.189334 593.237334a37.819733 37.819733 0 0 1-30.907733 16.315733v-0.290133zM734.72 978.432c-101.700267 5.051733-188.245333-73.1648-193.314133-174.711467-5.0688-101.546667 73.2672-187.9552 174.9504-193.024 101.700267-5.051733 188.245333 73.147733 193.314133 174.6944 0.170667 3.072 0.238933 6.109867 0.238933 9.1648 2.269867 99.003733-76.049067 181.213867-175.189333 183.8592z m0-287.0272a103.202133 103.202133 0 0 0-108.1344 97.9968 103.150933 103.150933 0 0 0 98.1504 107.963733 103.202133 103.202133 0 0 0 108.2368-102.8608 100.932267 100.932267 0 0 0-98.2528-103.099733z" fill="#1296db" p-id="11180"></path><path d="M663.808 691.063467a37.819733 37.819733 0 0 1-30.907733-16.3328l-399.018667-592.896a41.642667 41.642667 0 0 1 7.970133-56.456534 37.2736 37.2736 0 0 1 53.8112 8.362667L694.903467 626.688c12.629333 17.9712 9.147733 42.666667-7.970134 56.4736a37.0688 37.0688 0 0 1-22.9376 7.953067l-0.170666-0.0512z" fill="#1296db" p-id="11181"></path><path d="M898.030933 612.420267a213.060267 213.060267 0 0 0-205.021866-72.465067l-12.3904-100.113067a308.974933 308.974933 0 0 1 298.2912 111.752534l-80.878934 60.8256z" fill="#1296db" p-id="11182"></path></svg>