<svg t="1607334371219" class="icon" viewBox="0 0 1024 1024" version="1.1" xmlns="http://www.w3.org/2000/svg" p-id="14532" width="200" height="200"><path d="M182.2 616.5S326.9 512 486.9 578.7s358.4 26.4 358.4 26.4l-54.6 115.7s17.7 32.8 10.3 65.4c-7.4 32.6-74.1 5.9-74.1 5.9l-171.6 68.5s-28.4 51.5-41.7 51.5c-13.3 0-35.5-32.7-37.7-43l-178.9-80-63.3 16.4-8.3-49 7.1-39-50.3-101z" fill="#1296db" opacity=".5" p-id="14533"></path><path d="M512.1 929.2c-2.9 0-5.7-0.3-8.6-0.8-20.4-3.6-36.1-20.5-39.2-42.1-1.3-9.4-8.7-17-18.4-18.7-50.3-9.3-97.3-28.7-139.7-57.8-7.6-5.2-17.5-5.1-24.7 0.3l-1.8 1.4c-10.3 7.8-23.6 11-36.4 9-13-2.1-24.3-9.2-31.9-20-11.9-16.9-11-40 2-57.5 5.4-7.2 5.5-17.2 0.2-24.8C183.4 675 163.3 626.8 154 575c-1.4-7.9-7.7-14-15.6-15.2l-2.4-0.3c-14-2-26.3-10-33.8-21.9-7.5-12-9.4-26.7-5.1-40.5 5.4-17.2 21.3-30.1 40.5-32.8 8-1.1 14.3-7.3 15.7-15.4 9-53.6 29.5-103.5 60.9-148.1 4.1-5.9 4-13.6-0.3-19.3l-1.3-1.8c-7.8-10.3-11-23.6-9-36.4 2.1-13 9.2-24.3 20-31.9 16.9-11.9 40-11 57.5 2 5.7 4.3 13.6 4.4 19.4 0.2 44.7-32 96.8-53.7 150.9-62.7 6.8-1.1 12-6.5 13-13.4l0.2-1.6c1.8-12.8 8.9-24.5 19.4-32.1 10.6-7.7 23.7-10.7 36.7-8.4 20.4 3.6 36.1 20.5 39.2 42.1 1 6.9 6.2 12.2 13 13.4 53.8 9 105.8 30.6 150.4 62.4 6.2 4.4 14.4 4.3 20.4-0.2l0.8-0.6c10.3-7.8 23.6-11 36.4-9 13 2.1 24.3 9.2 31.9 20 11.9 16.9 11 40-2 57.5-4.5 6-4.6 14.1-0.3 20.3 31.2 44.5 51.5 94.1 60.5 147.6 1.4 8.1 7.7 14.2 15.7 15.4 21.6 3.1 38.5 18.8 42.1 39.2 2.3 13-0.7 26.1-8.4 36.7-7.6 10.5-19.3 17.5-32.1 19.4l-2.4 0.3c-7.9 1.1-14.2 7.2-15.6 15.2-9.3 51.6-29.3 99.5-59.3 142.6-5.5 8-5.5 18.4 0.2 25.9l0.6 0.8c7.8 10.3 11 23.6 9 36.4-2.1 13-9.2 24.3-20 31.9-16.9 11.9-40 11-57.5-2-7.5-5.6-17.8-5.7-25.7-0.3-42.2 28.9-89 48.2-139.1 57.4-9.6 1.8-17 9.3-18.4 18.7l-0.2 1.6c-1.8 12.8-8.9 24.5-19.4 32.1-8.6 5.9-18.4 9-28.4 9zM293.9 771.5c11.1 0 22.2 3.3 31.8 9.9 38.3 26.3 80.8 43.9 126.4 52.3 24.2 4.5 42.8 23.7 46.3 47.8 0.9 6.6 5.6 12 11.1 13 3.8 0.7 7.5-0.2 10.5-2.3 3-2.2 4.9-5.4 5.5-9l0.2-1.6c3.4-24.1 22-43.3 46.3-47.8 45.3-8.3 87.7-25.8 125.9-52 20.1-13.8 46.6-13.3 65.9 1.1 5.3 4 12.5 4.6 17 1.4 3.1-2.2 5.2-5.4 5.7-9 0.6-3.7-0.3-7.3-2.5-10.2l-0.6-0.8c-14.6-19.4-14.9-46.1-0.9-66.3 27.2-39 45.2-82.4 53.7-129 4.1-22.6 22-39.9 44.7-43.2l2.4-0.3c3.7-0.5 6.9-2.5 9-5.5 2.2-3 3-6.7 2.3-10.5-1-5.5-6.4-10.1-13-11.1-22.9-3.3-40.9-20.9-44.8-43.8-8.1-48.3-26.6-93.3-54.8-133.5-12.9-18.4-12.5-42.8 0.9-60.8 4-5.3 4.6-12.5 1.4-17-2.2-3.1-5.4-5.2-9-5.7-3.7-0.6-7.3 0.3-10.2 2.5l-0.8 0.6c-18.1 13.6-42.7 13.8-61.1 0.7-40.3-28.7-87.4-48.3-136-56.4-21.6-3.6-38.3-20.7-41.4-42.5-0.9-6.6-5.6-12-11.1-13-3.8-0.7-7.5 0.2-10.5 2.3-3 2.2-4.9 5.4-5.5 9l-0.2 1.6c-3.1 21.8-19.7 38.9-41.4 42.5-48.9 8.2-96.1 27.8-136.5 56.8-18.2 13-42.3 12.7-60.2-0.6-5.3-4-12.5-4.6-17-1.4-3.1 2.2-5.2 5.4-5.7 9-0.6 3.7 0.3 7.3 2.5 10.2l1.3 1.8c13.3 17.7 13.6 41.7 0.9 59.8-28.4 40.4-46.9 85.5-55.1 134-3.9 22.9-21.9 40.5-44.8 43.8-6 0.9-11.1 4.5-12.5 9-1.3 4.2-0.8 8.3 1.3 11.8 2.1 3.4 5.6 5.6 9.5 6.2l2.4 0.3c22.6 3.2 40.6 20.6 44.7 43.2 8.5 46.9 26.7 90.4 54 129.5 13.9 19.9 13.6 46.1-0.8 65.3-4 5.3-4.6 12.5-1.4 17 2.2 3.1 5.4 5.2 9 5.7 3.7 0.6 7.3-0.3 10.2-2.5l1.8-1.4c9.9-7.2 21.5-10.9 33.2-10.9z" fill="#1296db" p-id="14534"></path><path d="M440.2 425.3m-40 0a40 40 0 1 0 80 0 40 40 0 1 0-80 0Z" fill="#1296db" opacity=".5" p-id="14535"></path><path d="M640.2 465.3m-66.7 0a66.7 66.7 0 1 0 133.4 0 66.7 66.7 0 1 0-133.4 0Z" fill="#1296db" p-id="14536"></path><path d="M420.2 658.7m-46.7 0a46.7 46.7 0 1 0 93.4 0 46.7 46.7 0 1 0-93.4 0Z" fill="#1296db" p-id="14537"></path><path d="M520.2 278.7m-26.7 0a26.7 26.7 0 1 0 53.4 0 26.7 26.7 0 1 0-53.4 0Z" fill="#1296db" p-id="14538"></path><path d="M613.6 718.7m-26.7 0a26.7 26.7 0 1 0 53.4 0 26.7 26.7 0 1 0-53.4 0Z" fill="#1296db" p-id="14539"></path><path d="M280.2 518.7m-26.7 0a26.7 26.7 0 1 0 53.4 0 26.7 26.7 0 1 0-53.4 0Z" fill="#1296db" opacity=".5" p-id="14540"></path></svg>