<svg t="1607334347763" class="icon" viewBox="0 0 1024 1024" version="1.1" xmlns="http://www.w3.org/2000/svg" p-id="13889" width="200" height="200"><path d="M385.6 297.3c0-98.5-73.9-178.7-164.8-178.7-12.5 0-22.6 10.1-22.6 22.6 0 12.5 10.1 22.6 22.6 22.6 65.9 0 119.6 59.9 119.6 133.5 0 47.4-11.2 64.7-51.7 102.3-25.7 20-104.5 92.7-104.5 232.6 0 67.7 19.9 132.4 56 182.2 4.4 6.1 11.3 9.3 18.3 9.3 4.8 0 9.4-1.5 13.3-4.3 10.1-7.3 12.3-21.5 5-31.6-30.6-42.1-47.4-97.4-47.4-155.6 0-94.7 41.1-152.5 68.9-180.7 1.1-0.7 2.1-1.5 3.1-2.3 6.1-5.5 11.8-10.7 17.1-15.6l0.5-0.5c46.1-42.8 66.6-70.7 66.6-135.8z m356.2 109.8c-40.5-37.6-51.7-55-51.7-102.4 0-73.6 53.6-133.5 119.6-133.5 12.5 0 22.6-10.1 22.6-22.6 0-12.5-10.1-22.6-22.6-22.6-90.9 0-164.8 80.2-164.8 178.7 0 65 20.5 93 66.3 135.6 0.4 0.4 0.8 0.7 1.2 1.1 5.3 4.9 10.8 9.9 16.7 15.3 1 0.9 2 1.6 3.1 2.3 27.7 28.2 68.9 86 68.9 180.7 0 58.2-16.9 113.5-47.4 155.6-7.3 10.1-5.1 24.2 5 31.6 3.9 2.8 8.5 4.3 13.3 4.3 7 0 13.9-3.2 18.3-9.3 36.2-49.8 56.1-114.5 56.1-182.2-0.2-139.8-78.8-212.5-104.6-232.6z m0 0" fill="#1296db" p-id="13890"></path><path d="M516.7 716.6c-12.5 0-22.6-10.1-22.6-22.6 0-82.4 67-149.4 149.4-149.4 12.5 0 22.6 10.1 22.6 22.6 0 12.5-10.1 22.6-22.6 22.6-57.5 0-104.2 46.8-104.2 104.2 0 12.5-10.2 22.6-22.6 22.6z m0 0" fill="#1296db" p-id="13891"></path><path d="M389.8 544.6c-12.5 0-22.6 10.1-22.6 22.6 0 12.5 10.1 22.6 22.6 22.6 57.5 0 104.2 46.8 104.2 104.2v100.4c0 12.5 10.1 22.6 22.6 22.6 12.5 0 22.6-10.1 22.6-22.6V694c0.1-82.4-67-149.4-149.4-149.4z m0 0" fill="#1296db" p-id="13892"></path></svg>