<svg t="1607334311647" class="icon" viewBox="0 0 1024 1024" version="1.1" xmlns="http://www.w3.org/2000/svg" p-id="12019" width="200" height="200"><path d="M862.356506 958.708971H161.64247c-38.645159 0-70.070892-31.425733-70.070892-70.070892V222.950791c0-38.636972 31.425733-70.070892 70.070892-70.070892h700.714036c38.645159 0 70.071915 31.434943 70.071916 70.070892v665.687288c0 38.645159-31.426757 70.070892-70.071916 70.070892zM161.64247 222.950791v665.687288h700.765202l-0.051166-665.687288H161.64247z" fill="#1296db" p-id="12020"></path><path d="M897.392464 402.962631H126.607536c-19.348674 0-35.035958-15.687284-35.035958-35.035957s15.687284-35.035958 35.035958-35.035958H897.392464c19.348674 0 35.035958 15.687284 35.035958 35.035958s-15.687284 35.035958-35.035958 35.035957zM319.303256 222.950791c-19.348674 0-35.035958-15.687284-35.035957-35.035957V100.325963c0-19.348674 15.687284-35.035958 35.035957-35.035958s35.035958 15.687284 35.035958 35.035958v87.588871c0 19.348674-15.687284 35.035958-35.035958 35.035957zM704.69572 222.950791c-19.348674 0-35.035958-15.687284-35.035957-35.035957V100.325963c0-19.348674 15.687284-35.035958 35.035957-35.035958S739.731678 80.977289 739.731678 100.325963v87.588871c0 19.348674-15.687284 35.035958-35.035958 35.035957z" fill="#1296db" p-id="12021"></path><path d="M687.182858 599.587847H555.799552V468.203518h-87.589894v131.384329H336.826352v87.588871h131.383306v131.38433h87.589894V687.176718h131.383306z" fill="#1296db" p-id="12022"></path></svg>